<svg width="259" height="524" viewBox="0 0 259 524" fill="none" xmlns="http://www.w3.org/2000/svg">
<g clip-path="url(#clip0_1_471)">
<path d="M1.78133 59.4601C1.78133 38.695 1.78133 28.3124 5.81971 20.3812C9.37199 13.4048 15.0402 7.7327 22.0118 4.178C29.9376 0.136841 40.313 0.136841 61.0639 0.136841H197.229C217.98 0.136841 228.354 0.136841 236.28 4.178C243.252 7.7327 248.92 13.4048 252.473 20.3812C256.511 28.3124 256.511 38.695 256.511 59.4601V134.541H257.58C257.973 134.541 258.293 134.86 258.293 135.254V195.861C258.293 196.254 257.973 196.574 257.58 196.574H256.511V463.814C256.511 484.579 256.511 494.961 252.473 502.892C248.92 509.869 243.252 515.541 236.28 519.096C228.354 523.137 217.98 523.137 197.229 523.137H61.0639C40.313 523.137 29.9376 523.137 22.0118 519.096C15.0402 515.541 9.37199 509.869 5.81971 502.892C1.78133 494.961 1.78133 484.579 1.78133 463.814V209.052H0.712531C0.319011 209.052 0 208.732 0 208.338V169.836C0 169.442 0.319011 169.123 0.712531 169.123H1.78133V160.21H0.712531C0.319011 160.21 0 159.891 0 159.497V120.994C0 120.6 0.319011 120.281 0.712531 120.281H1.78133V103.525H0.712531C0.319011 103.525 0 103.206 0 102.812V83.5602C0 83.1664 0.319011 82.8471 0.712531 82.8471H1.78133V59.4601Z" fill="#ADAFA4"/>
<g style="mix-blend-mode:multiply">
<mask id="mask0_1_471" style="mask-type:alpha" maskUnits="userSpaceOnUse" x="1" y="0" width="256" height="524">
<g style="mix-blend-mode:multiply">
<g style="mix-blend-mode:multiply">
<path d="M1.78137 59.4601C1.78137 38.695 1.78137 28.3124 5.81976 20.3812C9.37204 13.4048 15.0402 7.7327 22.0119 4.178C29.9377 0.136841 40.3131 0.136841 61.064 0.136841H197.229C217.98 0.136841 228.354 0.136841 236.28 4.178C243.252 7.7327 248.92 13.4048 252.473 20.3812C256.511 28.3124 256.511 38.695 256.511 59.4601V463.814C256.511 484.579 256.511 494.961 252.473 502.892C248.92 509.869 243.252 515.541 236.28 519.096C228.354 523.137 217.98 523.137 197.229 523.137H61.064C40.3131 523.137 29.9377 523.137 22.0119 519.096C15.0402 515.541 9.37204 509.869 5.81976 502.892C1.78137 494.961 1.78137 484.579 1.78137 463.814V59.4601Z" fill="black"/>
</g>
</g>
</mask>
<g mask="url(#mask0_1_471)">
<g style="mix-blend-mode:multiply">
<g style="mix-blend-mode:multiply" filter="url(#filter0_i_1_471)">
<g style="mix-blend-mode:multiply">
<path d="M1.78137 59.4601C1.78137 38.695 1.78137 28.3124 5.81976 20.3812C9.37204 13.4048 15.0402 7.7327 22.0119 4.178C29.9377 0.136841 40.3131 0.136841 61.064 0.136841H197.229C217.98 0.136841 228.354 0.136841 236.28 4.178C243.252 7.7327 248.92 13.4048 252.473 20.3812C256.511 28.3124 256.511 38.695 256.511 59.4601V463.814C256.511 484.579 256.511 494.961 252.473 502.892C248.92 509.869 243.252 515.541 236.28 519.096C228.354 523.137 217.98 523.137 197.229 523.137H61.064C40.3131 523.137 29.9377 523.137 22.0119 519.096C15.0402 515.541 9.37204 509.869 5.81976 502.892C1.78137 494.961 1.78137 484.579 1.78137 463.814V59.4601Z" fill="#EBEBEB"/>
</g>
</g>
<path style="mix-blend-mode:multiply" d="M6.41284 44.7007H0.356323V49.6918H6.41284V44.7007Z" fill="url(#paint0_linear_1_471)"/>
<path style="mix-blend-mode:multiply" d="M6.41284 475.721H0.356323V480.712H6.41284V475.721Z" fill="url(#paint1_linear_1_471)"/>
<path style="mix-blend-mode:multiply" d="M257.936 44.7007H251.88V49.6918H257.936V44.7007Z" fill="url(#paint2_linear_1_471)"/>
<path style="mix-blend-mode:multiply" d="M257.936 475.721H251.88V480.712H257.936V475.721Z" fill="url(#paint3_linear_1_471)"/>
<path style="mix-blend-mode:multiply" d="M202.359 3.70191V-2.35876L197.371 -2.35876V3.70191H202.359Z" fill="url(#paint4_linear_1_471)"/>
<path style="mix-blend-mode:multiply" d="M52.371 524.563V518.502H47.3833V524.563H52.371Z" fill="url(#paint5_linear_1_471)"/>
</g>
<g style="mix-blend-mode:multiply">
<path d="M59.9239 3.22131H198.369C208.049 3.22131 215.297 3.2215 221.048 3.69169C226.796 4.16166 231.029 5.10004 234.687 6.96516C241.146 10.2583 246.397 15.5131 249.688 21.9763C251.551 25.6368 252.49 29.8731 252.959 35.6253C253.429 41.3801 253.429 48.6318 253.429 58.3194V464.955C253.429 474.642 253.429 481.894 252.959 487.649C252.49 493.401 251.551 497.637 249.688 501.297C246.397 507.761 241.146 513.016 234.687 516.309C231.029 518.174 226.796 519.113 221.048 519.583C215.297 520.053 208.049 520.053 198.369 520.053H59.9239C50.2431 520.053 42.9963 520.053 37.2454 519.583C31.4972 519.113 27.2638 518.174 23.6058 516.309C17.147 513.016 11.8959 507.761 8.60492 501.297C6.74108 497.637 5.80334 493.401 5.33369 487.649C4.86382 481.894 4.86365 474.642 4.86365 464.955V58.3194C4.86365 48.6318 4.86382 41.3801 5.33369 35.6253C5.80334 29.8731 6.74108 25.6368 8.60492 21.9763C11.8959 15.5131 17.147 10.2583 23.6058 6.96516C27.2638 5.10004 31.4972 4.16166 37.2454 3.69169C42.9963 3.2215 50.2431 3.22131 59.9239 3.22131Z" fill="black"/>
<path d="M59.9239 3.22131H198.369C208.049 3.22131 215.297 3.2215 221.048 3.69169C226.796 4.16166 231.029 5.10004 234.687 6.96516C241.146 10.2583 246.397 15.5131 249.688 21.9763C251.551 25.6368 252.49 29.8731 252.959 35.6253C253.429 41.3801 253.429 48.6318 253.429 58.3194V464.955C253.429 474.642 253.429 481.894 252.959 487.649C252.49 493.401 251.551 497.637 249.688 501.297C246.397 507.761 241.146 513.016 234.687 516.309C231.029 518.174 226.796 519.113 221.048 519.583C215.297 520.053 208.049 520.053 198.369 520.053H59.9239C50.2431 520.053 42.9963 520.053 37.2454 519.583C31.4972 519.113 27.2638 518.174 23.6058 516.309C17.147 513.016 11.8959 507.761 8.60492 501.297C6.74108 497.637 5.80334 493.401 5.33369 487.649C4.86382 481.894 4.86365 474.642 4.86365 464.955V58.3194C4.86365 48.6318 4.86382 41.3801 5.33369 35.6253C5.80334 29.8731 6.74108 25.6368 8.60492 21.9763C11.8959 15.5131 17.147 10.2583 23.6058 6.96516C27.2638 5.10004 31.4972 4.16166 37.2454 3.69169C42.9963 3.2215 50.2431 3.22131 59.9239 3.22131Z" stroke="url(#paint6_linear_1_471)" stroke-width="0.5" style="mix-blend-mode:multiply"/>
</g>
</g>
</g>
<g style="mix-blend-mode:screen">
<mask id="mask1_1_471" style="mask-type:alpha" maskUnits="userSpaceOnUse" x="1" y="0" width="256" height="524">
<g style="mix-blend-mode:screen">
<g style="mix-blend-mode:screen">
<path d="M1.78137 59.4601C1.78137 38.695 1.78137 28.3124 5.81976 20.3812C9.37204 13.4048 15.0402 7.7327 22.0119 4.178C29.9377 0.136841 40.3131 0.136841 61.064 0.136841H197.229C217.98 0.136841 228.354 0.136841 236.28 4.178C243.252 7.7327 248.92 13.4048 252.473 20.3812C256.511 28.3124 256.511 38.695 256.511 59.4601V463.814C256.511 484.579 256.511 494.961 252.473 502.892C248.92 509.869 243.252 515.541 236.28 519.096C228.354 523.137 217.98 523.137 197.229 523.137H61.064C40.3131 523.137 29.9377 523.137 22.0119 519.096C15.0402 515.541 9.37204 509.869 5.81976 502.892C1.78137 494.961 1.78137 484.579 1.78137 463.814V59.4601Z" fill="black"/>
</g>
</g>
</mask>
<g mask="url(#mask1_1_471)">
<g style="mix-blend-mode:screen">
<g style="mix-blend-mode:screen" filter="url(#filter1_ii_1_471)">
<g style="mix-blend-mode:screen">
<path d="M1.78137 59.4601C1.78137 38.695 1.78137 28.3124 5.81976 20.3812C9.37204 13.4048 15.0402 7.7327 22.0119 4.178C29.9377 0.136841 40.3131 0.136841 61.064 0.136841H197.229C217.98 0.136841 228.354 0.136841 236.28 4.178C243.252 7.7327 248.92 13.4048 252.473 20.3812C256.511 28.3124 256.511 38.695 256.511 59.4601V463.814C256.511 484.579 256.511 494.961 252.473 502.892C248.92 509.869 243.252 515.541 236.28 519.096C228.354 523.137 217.98 523.137 197.229 523.137H61.064C40.3131 523.137 29.9377 523.137 22.0119 519.096C15.0402 515.541 9.37204 509.869 5.81976 502.892C1.78137 494.961 1.78137 484.579 1.78137 463.814V59.4601Z" fill="#050505"/>
</g>
</g>
<path style="mix-blend-mode:screen" d="M61.064 1.0658H197.229C207.62 1.0658 215.356 1.06652 221.489 1.56786C227.61 2.0683 232.049 3.06297 235.859 5.0057C242.656 8.47134 248.182 14.0013 251.646 20.803C253.587 24.6158 254.581 29.0584 255.082 35.1836C255.582 41.3197 255.583 49.0622 255.583 59.4601V463.814C255.583 474.212 255.582 481.954 255.082 488.09C254.581 494.215 253.587 498.658 251.646 502.47C248.182 509.272 242.656 514.802 235.859 518.268C232.049 520.211 227.61 521.206 221.489 521.706C215.356 522.207 207.62 522.208 197.229 522.208H61.064C50.6733 522.208 42.9361 522.207 36.8042 521.706C30.6831 521.206 26.2436 520.211 22.4334 518.268C15.6363 514.802 10.1102 509.272 6.64693 502.47C4.70553 498.658 3.71155 494.215 3.21143 488.09C2.71044 481.954 2.70972 474.212 2.70972 463.814V59.4601C2.70972 49.0622 2.71044 41.3197 3.21143 35.1836C3.71155 29.0584 4.70553 24.6158 6.64693 20.803C10.1102 14.0013 15.6363 8.47134 22.4334 5.0057C26.2436 3.06297 30.6831 2.0683 36.8042 1.56786C42.9361 1.06652 50.6733 1.0658 61.064 1.0658Z" stroke="url(#paint7_linear_1_471)" stroke-width="2"/>
<path style="mix-blend-mode:screen" d="M6.41284 44.7007H0.356323V49.6918H6.41284V44.7007Z" fill="url(#paint8_linear_1_471)"/>
<path style="mix-blend-mode:screen" d="M6.41284 475.721H0.356323V480.712H6.41284V475.721Z" fill="url(#paint9_linear_1_471)"/>
<path style="mix-blend-mode:screen" d="M257.936 44.7007H251.88V49.6918H257.936V44.7007Z" fill="url(#paint10_linear_1_471)"/>
<path style="mix-blend-mode:screen" d="M257.936 475.721H251.88V480.712H257.936V475.721Z" fill="url(#paint11_linear_1_471)"/>
<path style="mix-blend-mode:screen" d="M202.359 3.70191V-2.35876L197.371 -2.35876V3.70191H202.359Z" fill="url(#paint12_linear_1_471)"/>
<path style="mix-blend-mode:screen" d="M52.371 524.563V518.502H47.3833V524.563H52.371Z" fill="url(#paint13_linear_1_471)"/>
</g>
<g style="mix-blend-mode:screen">
<path d="M59.9239 3.22131H198.369C208.049 3.22131 215.297 3.2215 221.048 3.69169C226.796 4.16166 231.029 5.10004 234.687 6.96516C241.146 10.2583 246.397 15.5131 249.688 21.9763C251.551 25.6368 252.49 29.8731 252.959 35.6253C253.429 41.3801 253.429 48.6318 253.429 58.3194V464.955C253.429 474.642 253.429 481.894 252.959 487.649C252.49 493.401 251.551 497.637 249.688 501.297C246.397 507.761 241.146 513.016 234.687 516.309C231.029 518.174 226.796 519.113 221.048 519.583C215.297 520.053 208.049 520.053 198.369 520.053H59.9239C50.2431 520.053 42.9963 520.053 37.2454 519.583C31.4972 519.113 27.2638 518.174 23.6058 516.309C17.147 513.016 11.8959 507.761 8.60492 501.297C6.74108 497.637 5.80334 493.401 5.33369 487.649C4.86382 481.894 4.86365 474.642 4.86365 464.955V58.3194C4.86365 48.6318 4.86382 41.3801 5.33369 35.6253C5.80334 29.8731 6.74108 25.6368 8.60492 21.9763C11.8959 15.5131 17.147 10.2583 23.6058 6.96516C27.2638 5.10004 31.4972 4.16166 37.2454 3.69169C42.9963 3.2215 50.2431 3.22131 59.9239 3.22131Z" fill="black"/>
<path d="M59.9239 3.22131H198.369C208.049 3.22131 215.297 3.2215 221.048 3.69169C226.796 4.16166 231.029 5.10004 234.687 6.96516C241.146 10.2583 246.397 15.5131 249.688 21.9763C251.551 25.6368 252.49 29.8731 252.959 35.6253C253.429 41.3801 253.429 48.6318 253.429 58.3194V464.955C253.429 474.642 253.429 481.894 252.959 487.649C252.49 493.401 251.551 497.637 249.688 501.297C246.397 507.761 241.146 513.016 234.687 516.309C231.029 518.174 226.796 519.113 221.048 519.583C215.297 520.053 208.049 520.053 198.369 520.053H59.9239C50.2431 520.053 42.9963 520.053 37.2454 519.583C31.4972 519.113 27.2638 518.174 23.6058 516.309C17.147 513.016 11.8959 507.761 8.60492 501.297C6.74108 497.637 5.80334 493.401 5.33369 487.649C4.86382 481.894 4.86365 474.642 4.86365 464.955V58.3194C4.86365 48.6318 4.86382 41.3801 5.33369 35.6253C5.80334 29.8731 6.74108 25.6368 8.60492 21.9763C11.8959 15.5131 17.147 10.2583 23.6058 6.96516C27.2638 5.10004 31.4972 4.16166 37.2454 3.69169C42.9963 3.2215 50.2431 3.22131 59.9239 3.22131Z" stroke="url(#paint14_linear_1_471)" stroke-width="0.5" style="mix-blend-mode:screen"/>
</g>
<g style="mix-blend-mode:screen">
<path d="M16.8912 26.2079C14.2507 31.3937 14.2507 38.1823 14.2507 51.7595V471.514C14.2507 485.092 14.2507 491.88 16.8912 497.066C19.2138 501.627 22.9199 505.336 27.4784 507.661C32.6606 510.303 39.4446 510.303 53.0124 510.303H205.28C218.849 510.303 225.632 510.303 230.815 507.661C235.373 505.336 239.078 501.627 241.401 497.066C244.042 491.88 244.042 485.092 244.042 471.514V51.7595C244.042 38.1823 244.042 31.3937 241.401 26.2079C239.078 21.6464 235.373 17.9377 230.815 15.6135C225.632 12.9712 218.849 12.9712 205.28 12.9712H193.373C192.783 12.9712 192.488 12.9712 192.252 13.0572C191.857 13.2014 191.545 13.5134 191.401 13.9095C191.315 14.1458 191.315 14.4409 191.315 15.0311C191.315 19.7524 191.315 22.113 190.627 24.0032C189.475 27.1721 186.98 29.6684 183.813 30.8218C181.925 31.5097 179.565 31.5097 174.847 31.5097H83.4454C78.7273 31.5097 76.3683 31.5097 74.4793 30.8218C71.3126 29.6684 68.8181 27.1721 67.6655 24.0032C66.978 22.113 66.978 19.7524 66.978 15.0311C66.978 14.4409 66.978 14.1458 66.8921 13.9095C66.748 13.5134 66.4362 13.2014 66.0403 13.0572C65.8043 12.9712 65.5093 12.9712 64.9196 12.9712H53.0124C39.4446 12.9712 32.6606 12.9712 27.4784 15.6135C22.9199 17.9377 19.2138 21.6464 16.8912 26.2079Z" fill="black"/>
</g>
</g>
</g>
<mask id="mask2_1_471" style="mask-type:alpha" maskUnits="userSpaceOnUse" x="14" y="12" width="231" height="499">
<path d="M16.8911 26.2079C14.2506 31.3937 14.2506 38.1823 14.2506 51.7595V471.514C14.2506 485.092 14.2506 491.88 16.8911 497.066C19.2137 501.627 22.9198 505.336 27.4783 507.661C32.6605 510.303 39.4444 510.303 53.0122 510.303H205.28C218.848 510.303 225.632 510.303 230.814 507.661C235.372 505.336 239.078 501.627 241.401 497.066C244.042 491.88 244.042 485.092 244.042 471.514V51.7595C244.042 38.1823 244.042 31.3937 241.401 26.2079C239.078 21.6464 235.372 17.9377 230.814 15.6135C225.632 12.9712 218.848 12.9712 205.28 12.9712H193.373C192.783 12.9712 192.488 12.9712 192.252 13.0572C191.857 13.2014 191.545 13.5134 191.401 13.9095C191.315 14.1458 191.315 14.4409 191.315 15.0311C191.315 19.7524 191.315 22.113 190.627 24.0032C189.475 27.1721 186.98 29.6684 183.813 30.8218C181.925 31.5097 179.565 31.5097 174.847 31.5097H83.4453C78.7272 31.5097 76.3682 31.5097 74.4792 30.8218C71.3125 29.6684 68.818 27.1721 67.6654 24.0032C66.9779 22.113 66.9779 19.7524 66.9779 15.0311C66.9779 14.4409 66.9779 14.1458 66.8919 13.9095C66.7479 13.5134 66.436 13.2014 66.0402 13.0572C65.8041 12.9712 65.5092 12.9712 64.9195 12.9712H53.0122C39.4444 12.9712 32.6605 12.9712 27.4783 15.6135C22.9198 17.9377 19.2137 21.6464 16.8911 26.2079Z" fill="#161616"/>
</mask>
<g mask="url(#mask2_1_471)">
<path d="M244.288 13.1422H14.853V510.473H244.288V13.1422Z" fill="white"/>
<g filter="url(#filter2_d_1_471)">
<path d="M221.867 242.593H37.1326C33.031 242.593 29.7061 245.921 29.7061 250.025V384.955C29.7061 389.06 33.031 392.387 37.1326 392.387H221.867C225.969 392.387 229.294 389.06 229.294 384.955V250.025C229.294 245.921 225.969 242.593 221.867 242.593Z" fill="white"/>
</g>
<path d="M99.7009 266.56H55.5131C54.4877 266.56 53.6565 267.392 53.6565 268.418V270.694C53.6565 271.72 54.4877 272.552 55.5131 272.552H99.7009C100.726 272.552 101.558 271.72 101.558 270.694V268.418C101.558 267.392 100.726 266.56 99.7009 266.56Z" fill="#B3BAC5"/>
<path opacity="0.1" d="M129.639 283.537H55.5131C54.4877 283.537 53.6565 284.369 53.6565 285.395V287.671C53.6565 288.697 54.4877 289.529 55.5131 289.529H129.639C130.665 289.529 131.496 288.697 131.496 287.671V285.395C131.496 284.369 130.665 283.537 129.639 283.537Z" fill="#5A7184"/>
<path d="M54.1555 351.443C54.1555 351.443 67.1287 342.456 73.6153 342.456C80.1019 342.456 83.5947 350.445 92.5762 350.945C101.558 351.443 115.529 334.467 127.504 334.467C139.479 334.467 145.467 343.454 163.43 342.956C181.393 342.456 181.892 324.481 194.865 324.481C206.149 324.481 205.73 310.504 215.281 306.864" stroke="#FAAD13" stroke-width="4" stroke-linecap="round"/>
<path d="M225.216 57.5992H22.4747C19.8034 57.5992 17.6379 59.7604 17.6379 62.4264V207.243C17.6379 209.909 19.8034 212.071 22.4747 212.071H225.216C227.887 212.071 230.052 209.909 230.052 207.243V62.4264C230.052 59.7604 227.887 57.5992 225.216 57.5992Z" fill="white"/>
<path d="M30.278 77.3102V71.6785H31.3099V77.3102H30.278ZM32.46 77.3102V73.3197H33.3708L33.4596 73.8588C33.5885 73.6657 33.7578 73.5128 33.9674 73.4002C34.1824 73.2822 34.4296 73.2232 34.7091 73.2232C35.3271 73.2232 35.765 73.4619 36.023 73.9393C36.1681 73.7193 36.3616 73.545 36.6034 73.4163C36.8507 73.2875 37.1194 73.2232 37.4096 73.2232C37.9309 73.2232 38.3313 73.3787 38.6107 73.6898C38.8902 74.0008 39.0298 74.4569 39.0298 75.0575V77.3102H37.998V75.154C37.998 74.8108 37.9309 74.548 37.7965 74.3656C37.6675 74.1833 37.466 74.0921 37.192 74.0921C36.9124 74.0921 36.6868 74.194 36.5147 74.3978C36.3482 74.6016 36.2648 74.8859 36.2648 75.2507V77.3102H35.233V75.154C35.233 74.8108 35.1659 74.548 35.0315 74.3656C34.8972 74.1833 34.6902 74.0921 34.4108 74.0921C34.1367 74.0921 33.9137 74.194 33.7417 74.3978C33.5751 74.6016 33.4918 74.8859 33.4918 75.2507V77.3102H32.46ZM40.0902 79.0803V73.3197H41.0091L41.122 73.8909C41.2509 73.714 41.4202 73.5584 41.6299 73.4243C41.8448 73.2902 42.1216 73.2232 42.4601 73.2232C42.8363 73.2232 43.1723 73.3143 43.4678 73.4967C43.7634 73.6791 43.9972 73.9285 44.1692 74.245C44.3411 74.5614 44.4271 74.9208 44.4271 75.323C44.4271 75.7253 44.3411 76.0847 44.1692 76.4011C43.9972 76.7122 43.7634 76.9589 43.4678 77.1413C43.1723 77.3183 42.8363 77.4068 42.4601 77.4068C42.1592 77.4068 41.8958 77.3505 41.6701 77.2379C41.4445 77.1252 41.2617 76.967 41.122 76.7632V79.0803H40.0902ZM42.2425 76.5057C42.5703 76.5057 42.8418 76.3958 43.0567 76.1758C43.2717 75.9559 43.3792 75.6717 43.3792 75.323C43.3792 74.9744 43.2717 74.6874 43.0567 74.4622C42.8418 74.2369 42.5703 74.1243 42.2425 74.1243C41.9093 74.1243 41.6352 74.2369 41.4202 74.4622C41.2106 74.6821 41.1058 74.9663 41.1058 75.3149C41.1058 75.6637 41.2106 75.9505 41.4202 76.1758C41.6352 76.3958 41.9093 76.5057 42.2425 76.5057ZM45.4295 77.3102V73.3197H46.3485L46.4452 74.0679C46.5903 73.8105 46.7865 73.6067 47.0337 73.4565C47.2863 73.301 47.5818 73.2232 47.9204 73.2232V74.3094H47.6302C47.4044 74.3094 47.203 74.3442 47.0256 74.4139C46.8483 74.4836 46.7085 74.6043 46.6065 74.776C46.5096 74.9476 46.4613 75.1863 46.4613 75.492V77.3102H45.4295ZM50.5782 77.4068C50.1751 77.4068 49.8177 77.321 49.5061 77.1493C49.1943 76.9777 48.9498 76.7363 48.7724 76.4252C48.5951 76.1142 48.5065 75.7548 48.5065 75.3472C48.5065 74.9342 48.5924 74.5668 48.7644 74.245C48.9417 73.9231 49.1836 73.6738 49.4899 73.4967C49.8015 73.3143 50.167 73.2232 50.5862 73.2232C50.9786 73.2232 51.3252 73.309 51.6261 73.4806C51.9271 73.6523 52.1609 73.8883 52.3275 74.1886C52.4994 74.4836 52.5855 74.8135 52.5855 75.1782C52.5855 75.2372 52.5827 75.2989 52.5774 75.3632C52.5774 75.4276 52.5747 75.4947 52.5693 75.5644H49.5302C49.5517 75.8755 49.6591 76.1195 49.8527 76.2966C50.0514 76.4735 50.2907 76.5621 50.5701 76.5621C50.7797 76.5621 50.9543 76.5164 51.0941 76.4252C51.2392 76.3287 51.3467 76.2053 51.4165 76.0551H52.4645C52.3892 76.3072 52.263 76.5379 52.0857 76.7471C51.9136 76.9509 51.6987 77.1118 51.4408 77.2298C51.1882 77.3478 50.9006 77.4068 50.5782 77.4068ZM50.5862 74.0599C50.3337 74.0599 50.1106 74.1323 49.9171 74.2771C49.7237 74.4166 49.6001 74.6311 49.5463 74.9208H51.5375C51.5213 74.658 51.4246 74.4488 51.2472 74.2932C51.0699 74.1377 50.8495 74.0599 50.5862 74.0599ZM55.1864 77.4068C54.8317 77.4068 54.5201 77.3505 54.2513 77.2379C53.9826 77.1198 53.7677 76.9589 53.6064 76.7551C53.4452 76.5513 53.3484 76.3153 53.3162 76.0471H54.3561C54.3883 76.2027 54.4743 76.3368 54.6141 76.4494C54.7592 76.5567 54.9446 76.6103 55.1703 76.6103C55.396 76.6103 55.56 76.5648 55.6621 76.4735C55.7696 76.3823 55.8232 76.2777 55.8232 76.1597C55.8232 75.9881 55.7481 75.8728 55.5976 75.8138C55.4471 75.7494 55.2375 75.6877 54.9688 75.6287C54.7968 75.5912 54.6222 75.5456 54.4448 75.492C54.2675 75.4384 54.1035 75.3713 53.9531 75.2909C53.808 75.205 53.6897 75.0977 53.5984 74.969C53.507 74.8349 53.4613 74.6714 53.4613 74.4782C53.4613 74.1243 53.601 73.8266 53.8805 73.5852C54.1654 73.3439 54.5631 73.2232 55.0735 73.2232C55.5465 73.2232 55.9227 73.3331 56.2022 73.5531C56.487 73.773 56.6563 74.076 56.71 74.4622H55.7346C55.6755 74.1672 55.4525 74.0197 55.0656 74.0197C54.872 74.0197 54.7216 74.0572 54.6141 74.1323C54.512 74.2074 54.4609 74.3013 54.4609 74.4139C54.4609 74.5319 54.5388 74.6258 54.6947 74.6955C54.8506 74.7652 55.0575 74.8296 55.3155 74.8886C55.5949 74.9529 55.8502 75.0254 56.0812 75.1058C56.3177 75.1809 56.5057 75.2962 56.6455 75.4518C56.7853 75.6019 56.8552 75.8192 56.8552 76.1034C56.8605 76.3502 56.796 76.5727 56.6616 76.7712C56.5273 76.9697 56.3338 77.1252 56.0812 77.2379C55.8286 77.3505 55.5304 77.4068 55.1864 77.4068ZM59.5025 77.4068C59.1478 77.4068 58.8358 77.3505 58.5674 77.2379C58.2986 77.1198 58.0837 76.9589 57.9224 76.7551C57.7611 76.5513 57.6644 76.3153 57.6322 76.0471H58.6722C58.7045 76.2027 58.7903 76.3368 58.9301 76.4494C59.0752 76.5567 59.2607 76.6103 59.4864 76.6103C59.7121 76.6103 59.8757 76.5648 59.9781 76.4735C60.0853 76.3823 60.1394 76.2777 60.1394 76.1597C60.1394 75.9881 60.064 75.8728 59.9137 75.8138C59.7629 75.7494 59.5533 75.6877 59.2848 75.6287C59.1127 75.5912 58.9382 75.5456 58.7609 75.492C58.5835 75.4384 58.4195 75.3713 58.2692 75.2909C58.1241 75.205 58.0055 75.0977 57.9143 74.969C57.8229 74.8349 57.7773 74.6714 57.7773 74.4782C57.7773 74.1243 57.917 73.8266 58.1966 73.5852C58.4812 73.3439 58.879 73.2232 59.3897 73.2232C59.8624 73.2232 60.2385 73.3331 60.5182 73.5531C60.8028 73.773 60.9721 74.076 61.0261 74.4622H60.0507C59.9915 74.1672 59.7686 74.0197 59.3816 74.0197C59.1881 74.0197 59.0374 74.0572 58.9301 74.1323C58.8278 74.2074 58.777 74.3013 58.777 74.4139C58.777 74.5319 58.8548 74.6258 59.0108 74.6955C59.1664 74.7652 59.3735 74.8296 59.6315 74.8886C59.9108 74.9529 60.166 75.0254 60.3973 75.1058C60.6335 75.1809 60.8218 75.2962 60.9616 75.4518C61.1011 75.6019 61.1712 75.8192 61.1712 76.1034C61.1765 76.3502 61.112 76.5727 60.9777 76.7712C60.8431 76.9697 60.6497 77.1252 60.3973 77.2379C60.1446 77.3505 59.8463 77.4068 59.5025 77.4068ZM62.7217 72.7002C62.5339 72.7002 62.378 72.6439 62.2542 72.5312C62.1362 72.4187 62.0768 72.2765 62.0768 72.1049C62.0768 71.9332 62.1362 71.7938 62.2542 71.6866C62.378 71.5739 62.5339 71.5176 62.7217 71.5176C62.91 71.5176 63.0632 71.5739 63.1813 71.6866C63.305 71.7938 63.3666 71.9332 63.3666 72.1049C63.3666 72.2765 63.305 72.4187 63.1813 72.5312C63.0632 72.6439 62.91 72.7002 62.7217 72.7002ZM62.2059 77.3102V73.3197H63.2377V77.3102H62.2059ZM66.3139 77.4068C65.9269 77.4068 65.5779 77.3183 65.2659 77.1413C64.9596 76.9643 64.7153 76.7203 64.5323 76.4092C64.355 76.0927 64.2664 75.728 64.2664 75.3149C64.2664 74.9019 64.3578 74.5399 64.5404 74.2288C64.7234 73.9124 64.9676 73.6657 65.274 73.4887C65.586 73.3117 65.935 73.2232 66.3219 73.2232C66.7037 73.2232 67.0475 73.3117 67.3538 73.4887C67.6658 73.6657 67.91 73.9124 68.0874 74.2288C68.2704 74.5399 68.3615 74.9019 68.3615 75.3149C68.3615 75.728 68.2704 76.0927 68.0874 76.4092C67.91 76.7203 67.6658 76.9643 67.3538 77.1413C67.0422 77.3183 66.6956 77.4068 66.3139 77.4068ZM66.3139 76.5138C66.5827 76.5138 66.8165 76.4145 67.0152 76.216C67.2143 76.0122 67.3135 75.7119 67.3135 75.3149C67.3135 74.9181 67.2143 74.6204 67.0152 74.4219C66.8165 74.2181 66.5856 74.1162 66.3219 74.1162C66.0479 74.1162 65.8116 74.2181 65.6125 74.4219C65.4191 74.6204 65.3223 74.9181 65.3223 75.3149C65.3223 75.7119 65.4191 76.0122 65.6125 76.216C65.8116 76.4145 66.0455 76.5138 66.3139 76.5138ZM69.3647 77.3102V73.3197H70.2756L70.3562 73.9956C70.48 73.7595 70.6573 73.5719 70.8882 73.4323C71.1249 73.2929 71.4018 73.2232 71.7186 73.2232C72.2131 73.2232 72.5973 73.3787 72.8713 73.6898C73.1454 74.0008 73.2824 74.4569 73.2824 75.0575V77.3102H72.2506V75.154C72.2506 74.8108 72.1809 74.548 72.041 74.3656C71.9016 74.1833 71.6839 74.0921 71.388 74.0921C71.0978 74.0921 70.8588 74.194 70.6706 74.3978C70.488 74.6016 70.3965 74.8859 70.3965 75.2507V77.3102H69.3647ZM76.0023 77.4068C75.6476 77.4068 75.3361 77.3505 75.0672 77.2379C74.7988 77.1198 74.5836 76.9589 74.4223 76.7551C74.2611 76.5513 74.1643 76.3153 74.1321 76.0471H75.172C75.2042 76.2027 75.2905 76.3368 75.43 76.4494C75.5751 76.5567 75.7605 76.6103 75.9862 76.6103C76.2119 76.6103 76.376 76.5648 76.4779 76.4735C76.5856 76.3823 76.6391 76.2777 76.6391 76.1597C76.6391 75.9881 76.5642 75.8728 76.4135 75.8138C76.2631 75.7494 76.0535 75.6877 75.7846 75.6287C75.613 75.5912 75.438 75.5456 75.2607 75.492C75.0834 75.4384 74.9197 75.3713 74.769 75.2909C74.6239 75.205 74.5058 75.0977 74.4142 74.969C74.3232 74.8349 74.2772 74.6714 74.2772 74.4782C74.2772 74.1243 74.417 73.8266 74.6964 73.5852C74.9814 73.3439 75.3792 73.2232 75.8894 73.2232C76.3627 73.2232 76.7388 73.3331 77.0181 73.5531C77.303 73.773 77.4723 74.076 77.5259 74.4622H76.5505C76.4916 74.1672 76.2684 74.0197 75.8814 74.0197C75.6879 74.0197 75.5376 74.0572 75.43 74.1323C75.328 74.2074 75.2768 74.3013 75.2768 74.4139C75.2768 74.5319 75.355 74.6258 75.5106 74.6955C75.6665 74.7652 75.8734 74.8296 76.1313 74.8886C76.4111 74.9529 76.6662 75.0254 76.8971 75.1058C77.1338 75.1809 77.3219 75.2962 77.4614 75.4518C77.6012 75.6019 77.671 75.8192 77.671 76.1034C77.6766 76.3502 77.6122 76.5727 77.4775 76.7712C77.3434 76.9697 77.1498 77.1252 76.8971 77.2379C76.6448 77.3505 76.3465 77.4068 76.0023 77.4068ZM82.4973 77.3988C82.0833 77.3988 81.7234 77.329 81.4171 77.1896C81.1107 77.0447 80.8713 76.8436 80.6996 76.5861C80.5328 76.3287 80.4497 76.0283 80.4497 75.685C80.4497 75.3203 80.5517 74.9905 80.756 74.6955C80.96 74.4005 81.2639 74.1645 81.667 73.9875C81.5057 73.7997 81.3901 73.6228 81.3204 73.4565C81.2502 73.2902 81.2156 73.1132 81.2156 72.9255C81.2156 72.6681 81.2801 72.4401 81.409 72.2417C81.538 72.0378 81.7206 71.8769 81.9572 71.7589C82.199 71.6409 82.4864 71.582 82.8198 71.582C83.1583 71.582 83.4457 71.6436 83.6823 71.767C83.9185 71.8904 84.0958 72.0566 84.2143 72.2658C84.3377 72.475 84.3941 72.7083 84.3836 72.9657H83.4002C83.4002 72.7673 83.3409 72.6198 83.2229 72.5233C83.11 72.4214 82.9729 72.3704 82.8117 72.3704C82.6287 72.3704 82.4811 72.4214 82.3683 72.5233C82.2607 72.6252 82.2071 72.7565 82.2071 72.9175C82.2071 73.0516 82.2498 73.1883 82.336 73.3277C82.4219 73.4673 82.5481 73.6282 82.715 73.8105L84.295 75.3713C84.4078 75.189 84.5259 74.9771 84.6497 74.7357L84.827 74.3817H85.883L85.6009 74.9288C85.3856 75.3632 85.1708 75.7306 84.956 76.031L86.2538 77.3102H85.0204L84.3917 76.6827C84.1176 76.9348 83.8246 77.1171 83.513 77.2298C83.2067 77.3424 82.8681 77.3988 82.4973 77.3988ZM81.4493 75.6208C81.4493 75.8836 81.546 76.1061 81.7395 76.2885C81.9382 76.4654 82.2014 76.554 82.5295 76.554C82.9971 76.554 83.4026 76.3877 83.7468 76.0551L82.2555 74.5828C81.9813 74.7008 81.777 74.8483 81.6428 75.0254C81.5138 75.2024 81.4493 75.4008 81.4493 75.6208ZM89.0007 77.3102V71.6785H91.0725C91.5239 71.6785 91.8947 71.7562 92.1849 71.9118C92.4804 72.0619 92.7009 72.2684 92.8463 72.5312C92.9911 72.7887 93.0635 73.0757 93.0635 73.3921C93.0635 73.7354 92.9716 74.0492 92.7895 74.3334C92.6122 74.6178 92.3324 74.8242 91.9511 74.9529L93.1202 77.3102H91.935L90.887 75.0897H90.0326V77.3102H89.0007ZM90.0326 74.3334H91.008C91.3518 74.3334 91.6045 74.2503 91.7658 74.0841C91.9269 73.9178 92.0076 73.6978 92.0076 73.4243C92.0076 73.1562 91.9269 72.9416 91.7658 72.7807C91.6097 72.6198 91.3546 72.5393 90.9999 72.5393H90.0326V74.3334ZM95.778 77.4068C95.3751 77.4068 95.0177 77.321 94.7057 77.1493C94.3948 76.9777 94.1497 76.7363 93.9724 76.4252C93.7951 76.1142 93.7069 75.7548 93.7069 75.3472C93.7069 74.9342 93.7923 74.5668 93.964 74.245C94.1423 73.9231 94.3836 73.6738 94.69 73.4967C95.0019 73.3143 95.3667 73.2232 95.7863 73.2232C96.178 73.2232 96.5252 73.309 96.826 73.4806C97.1277 73.6523 97.3607 73.8883 97.5278 74.1886C97.6996 74.4836 97.7859 74.8135 97.7859 75.1782C97.7859 75.2372 97.7831 75.2989 97.7775 75.3632C97.7775 75.4276 97.7747 75.4947 97.7692 75.5644H94.7299C94.7512 75.8755 94.8589 76.1195 95.0529 76.2966C95.2516 76.4735 95.4911 76.5621 95.7705 76.5621C95.9794 76.5621 96.1539 76.5164 96.2941 76.4252C96.4389 76.3287 96.5466 76.2053 96.6162 76.0551H97.6643C97.5891 76.3072 97.4628 76.5379 97.2855 76.7471C97.1138 76.9509 96.8984 77.1118 96.6403 77.2298C96.3878 77.3478 96.101 77.4068 95.778 77.4068ZM95.7863 74.0599C95.5338 74.0599 95.311 74.1323 95.117 74.2771C94.9239 74.4166 94.8004 74.6311 94.7466 74.9208H96.7378C96.7211 74.658 96.6246 74.4488 96.4473 74.2932C96.27 74.1377 96.0499 74.0599 95.7863 74.0599ZM100.112 77.4068C99.7688 77.4068 99.4866 77.3532 99.2656 77.2459C99.0456 77.1333 98.8822 76.9858 98.7746 76.8034C98.6669 76.621 98.613 76.4199 98.613 76.2C98.613 75.8299 98.7578 75.5295 99.0484 75.2989C99.338 75.0683 99.7734 74.9529 100.355 74.9529H101.37V74.8564C101.37 74.5828 101.292 74.3817 101.136 74.253C100.98 74.1243 100.787 74.0599 100.556 74.0599C100.346 74.0599 100.163 74.1108 100.007 74.2127C99.8523 74.3094 99.7548 74.4541 99.7177 74.6472H98.7096C98.7365 74.3576 98.833 74.1054 99.0001 73.8909C99.1719 73.6765 99.3928 73.5128 99.6611 73.4002C99.9294 73.2822 100.231 73.2232 100.563 73.2232C101.133 73.2232 101.583 73.3654 101.91 73.6496C102.238 73.9339 102.401 74.3361 102.401 74.8564V77.3102H101.523L101.427 76.6666C101.308 76.8812 101.142 77.0581 100.926 77.1976C100.717 77.3371 100.446 77.4068 100.112 77.4068ZM100.346 76.6023C100.642 76.6023 100.87 76.5057 101.031 76.3126C101.198 76.1195 101.303 75.8809 101.346 75.5966H100.467C100.193 75.5966 99.9971 75.6475 99.8783 75.7494C99.7604 75.846 99.701 75.9667 99.701 76.1115C99.701 76.267 99.7604 76.3877 99.8783 76.4735C99.9971 76.5594 100.153 76.6023 100.346 76.6023ZM105.426 77.4068C105.017 77.4068 104.657 77.3183 104.345 77.1413C104.034 76.9643 103.787 76.7176 103.604 76.4011C103.426 76.0847 103.338 75.7226 103.338 75.3149C103.338 74.9074 103.426 74.5453 103.604 74.2288C103.787 73.9124 104.034 73.6657 104.345 73.4887C104.657 73.3117 105.017 73.2232 105.426 73.2232C105.937 73.2232 106.366 73.3573 106.715 73.6255C107.065 73.8883 107.288 74.253 107.385 74.7197H106.297C106.243 74.5265 106.135 74.3763 105.975 74.2691C105.819 74.1564 105.633 74.1002 105.418 74.1002C105.134 74.1002 104.891 74.2074 104.693 74.4219C104.494 74.6364 104.395 74.9342 104.395 75.3149C104.395 75.6958 104.494 75.9934 104.693 76.208C104.891 76.4225 105.134 76.5298 105.418 76.5298C105.633 76.5298 105.819 76.4762 105.975 76.3689C106.135 76.2616 106.243 76.1088 106.297 75.9103H107.385C107.288 76.3609 107.065 76.723 106.715 76.9964C106.366 77.27 105.937 77.4068 105.426 77.4068ZM108.381 77.3102V71.5176H109.413V73.9312C109.548 73.7113 109.728 73.5396 109.953 73.4163C110.184 73.2875 110.448 73.2232 110.743 73.2232C111.238 73.2232 111.62 73.3787 111.888 73.6898C112.162 74.0008 112.299 74.4569 112.299 75.0575V77.3102H111.275V75.154C111.275 74.8108 111.206 74.548 111.065 74.3656C110.932 74.1833 110.716 74.0921 110.42 74.0921C110.131 74.0921 109.888 74.194 109.695 74.3978C109.508 74.6016 109.413 74.8859 109.413 75.2507V77.3102H108.381ZM115.392 77.3102V71.6785H116.424V74.0197H118.955V71.6785H119.987V77.3102H118.955V74.8564H116.424V77.3102H115.392ZM121.697 72.7002C121.508 72.7002 121.353 72.6439 121.229 72.5312C121.111 72.4187 121.051 72.2765 121.051 72.1049C121.051 71.9332 121.111 71.7938 121.229 71.6866C121.353 71.5739 121.508 71.5176 121.697 71.5176C121.885 71.5176 122.038 71.5739 122.156 71.6866C122.28 71.7938 122.342 71.9332 122.342 72.1049C122.342 72.2765 122.28 72.4187 122.156 72.5312C122.038 72.6439 121.885 72.7002 121.697 72.7002ZM121.18 77.3102V73.3197H122.213V77.3102H121.18ZM125.023 77.4068C124.668 77.4068 124.356 77.3505 124.088 77.2379C123.819 77.1198 123.603 76.9589 123.443 76.7551C123.281 76.5513 123.185 76.3153 123.152 76.0471H124.192C124.224 76.2027 124.311 76.3368 124.45 76.4494C124.596 76.5567 124.78 76.6103 125.006 76.6103C125.232 76.6103 125.396 76.5648 125.498 76.4735C125.606 76.3823 125.66 76.2777 125.66 76.1597C125.66 75.9881 125.584 75.8728 125.434 75.8138C125.284 75.7494 125.074 75.6877 124.805 75.6287C124.633 75.5912 124.458 75.5456 124.281 75.492C124.104 75.4384 123.939 75.3713 123.789 75.2909C123.644 75.205 123.526 75.0977 123.434 74.969C123.343 74.8349 123.297 74.6714 123.297 74.4782C123.297 74.1243 123.437 73.8266 123.717 73.5852C124.002 73.3439 124.399 73.2232 124.909 73.2232C125.383 73.2232 125.759 73.3331 126.038 73.5531C126.323 73.773 126.492 74.076 126.546 74.4622H125.57C125.511 74.1672 125.288 74.0197 124.902 74.0197C124.708 74.0197 124.558 74.0572 124.45 74.1323C124.348 74.2074 124.297 74.3013 124.297 74.4139C124.297 74.5319 124.375 74.6258 124.531 74.6955C124.687 74.7652 124.894 74.8296 125.152 74.8886C125.431 74.9529 125.686 75.0254 125.918 75.1058C126.154 75.1809 126.342 75.2962 126.482 75.4518C126.621 75.6019 126.691 75.8192 126.691 76.1034C126.696 76.3502 126.632 76.5727 126.498 76.7712C126.363 76.9697 126.17 77.1252 125.918 77.2379C125.664 77.3505 125.366 77.4068 125.023 77.4068ZM129.341 77.3102C128.923 77.3102 128.586 77.2083 128.334 77.0045C128.081 76.8007 127.955 76.4386 127.955 75.9184V74.1806H127.269V73.3197H127.955L128.076 72.2497H128.987V73.3197H130.067V74.1806H128.987V75.9265C128.987 76.1195 129.026 76.2536 129.107 76.3287C129.194 76.3984 129.339 76.4333 129.543 76.4333H130.043V77.3102H129.341ZM132.849 77.4068C132.462 77.4068 132.113 77.3183 131.801 77.1413C131.495 76.9643 131.251 76.7203 131.068 76.4092C130.891 76.0927 130.802 75.728 130.802 75.3149C130.802 74.9019 130.893 74.5399 131.076 74.2288C131.259 73.9124 131.503 73.6657 131.81 73.4887C132.122 73.3117 132.471 73.2232 132.858 73.2232C133.239 73.2232 133.584 73.3117 133.89 73.4887C134.202 73.6657 134.446 73.9124 134.623 74.2288C134.806 74.5399 134.897 74.9019 134.897 75.3149C134.897 75.728 134.806 76.0927 134.623 76.4092C134.446 76.7203 134.202 76.9643 133.89 77.1413C133.578 77.3183 133.231 77.4068 132.849 77.4068ZM132.849 76.5138C133.119 76.5138 133.352 76.4145 133.551 76.216C133.75 76.0122 133.849 75.7119 133.849 75.3149C133.849 74.9181 133.75 74.6204 133.551 74.4219C133.352 74.2181 133.121 74.1162 132.858 74.1162C132.584 74.1162 132.347 74.2181 132.148 74.4219C131.954 74.6204 131.858 74.9181 131.858 75.3149C131.858 75.7119 131.954 76.0122 132.148 76.216C132.347 76.4145 132.581 76.5138 132.849 76.5138ZM135.901 77.3102V73.3197H136.82L136.916 74.0679C137.061 73.8105 137.258 73.6067 137.505 73.4565C137.757 73.301 138.053 73.2232 138.391 73.2232V74.3094H138.101C137.875 74.3094 137.674 74.3442 137.496 74.4139C137.319 74.4836 137.18 74.6043 137.078 74.776C136.98 74.9476 136.932 75.1863 136.932 75.492V77.3102H135.901ZM139.677 79.0803L140.604 77.0447H140.362L138.806 73.3197H139.927L141.047 76.1276L142.216 73.3197H143.312L140.773 79.0803H139.677Z" fill="#183B56"/>
<path d="M31.6999 177.878H31.2536V175.012C31.2536 174.774 31.2609 174.549 31.2757 174.336C31.237 174.374 31.1939 174.415 31.1462 174.457C31.0984 174.499 30.8798 174.678 30.4903 174.993L30.2479 174.679L31.3142 173.857H31.6999V177.878ZM33.8959 176.335C33.9749 176.223 34.0952 176.077 34.2569 175.895L35.2322 174.863H35.775L34.5517 176.148L35.8605 177.878H35.3066L34.2403 176.453L33.8959 176.75V177.878H33.444V173.599H33.8959V175.868C33.8959 175.969 33.8886 176.124 33.8738 176.335H33.8959Z" fill="#5A7184"/>
<path d="M32.6752 195.976C32.6752 196.67 32.565 197.189 32.3446 197.532C32.126 197.875 31.7907 198.046 31.3389 198.046C30.9054 198.046 30.5757 197.871 30.3497 197.521C30.1237 197.169 30.0109 196.654 30.0109 195.976C30.0109 195.275 30.1201 194.755 30.3387 194.416C30.5573 194.077 30.8907 193.908 31.3389 193.908C31.7761 193.908 32.1077 194.084 32.3336 194.438C32.5613 194.792 32.6752 195.304 32.6752 195.976ZM30.4737 195.976C30.4737 196.56 30.5426 196.987 30.6804 197.254C30.8181 197.521 31.0377 197.653 31.3389 197.653C31.6438 197.653 31.8642 197.518 32.0002 197.248C32.1379 196.977 32.2068 196.553 32.2068 195.976C32.2068 195.398 32.1379 194.975 32.0002 194.708C31.8642 194.438 31.6438 194.304 31.3389 194.304C31.0377 194.304 30.8181 194.437 30.6804 194.702C30.5426 194.966 30.4737 195.391 30.4737 195.976Z" fill="#5A7184"/>
<path d="M32.6533 157.764H30.0054V157.371L31.0662 156.307C31.3895 155.981 31.6026 155.747 31.7055 155.608C31.8083 155.469 31.8855 155.333 31.9369 155.201C31.9883 155.069 32.0141 154.927 32.0141 154.775C32.0141 154.56 31.9488 154.391 31.8184 154.267C31.688 154.139 31.5071 154.076 31.2756 154.076C31.1084 154.076 30.9496 154.104 30.7989 154.159C30.6502 154.215 30.4839 154.314 30.3002 154.459L30.0577 154.149C30.4288 153.84 30.833 153.686 31.2701 153.686C31.6485 153.686 31.9452 153.784 32.1601 153.978C32.375 154.17 32.4825 154.429 32.4825 154.755C32.4825 155.011 32.4108 155.263 32.2675 155.512C32.1243 155.761 31.8561 156.077 31.463 156.458L30.5813 157.319V157.341H32.6533V157.764ZM33.8959 156.221C33.9749 156.11 34.0953 155.963 34.2569 155.782L35.2323 154.751H35.775L34.5517 156.035L35.8604 157.764H35.3066L34.2403 156.34L33.8959 156.636V157.764H33.444V153.485H33.8959V155.754C33.8959 155.855 33.8886 156.011 33.8739 156.221H33.8959Z" fill="#5A7184"/>
<path d="M32.8434 136.727H32.2455V137.651H31.8074V136.727H29.8484V136.328L31.7605 133.609H32.2455V136.312H32.8434V136.727ZM31.8074 136.312V134.975C31.8074 134.713 31.8166 134.417 31.835 134.087H31.8129C31.7247 134.263 31.6421 134.409 31.5649 134.525L30.3058 136.312H31.8074ZM33.8959 136.109C33.9749 135.996 34.0952 135.849 34.2569 135.668L35.2322 134.637H35.775L34.5517 135.921L35.8605 137.651H35.3066L34.2403 136.227L33.8959 136.523V137.651H33.444V133.372H33.8959V135.64C33.8959 135.742 33.8886 135.898 33.8738 136.109H33.8959Z" fill="#5A7184"/>
<path d="M30.0522 115.818C30.0522 115.029 30.2056 114.438 30.5124 114.048C30.821 113.656 31.2765 113.459 31.8791 113.459C32.0867 113.459 32.2501 113.476 32.3695 113.512V113.905C32.228 113.859 32.0664 113.836 31.8846 113.836C31.4529 113.836 31.1232 113.971 30.8954 114.24C30.6676 114.508 30.5427 114.929 30.5207 115.505H30.5537C30.7558 115.189 31.0754 115.032 31.5126 115.032C31.8744 115.032 32.1592 115.141 32.3667 115.359C32.5762 115.578 32.6809 115.873 32.6809 116.248C32.6809 116.666 32.566 116.994 32.3365 117.235C32.1087 117.473 31.8001 117.593 31.4107 117.593C30.9937 117.593 30.663 117.437 30.4187 117.125C30.1744 116.811 30.0522 116.376 30.0522 115.818ZM31.4051 117.204C31.6659 117.204 31.868 117.123 32.0114 116.96C32.1565 116.795 32.229 116.558 32.229 116.248C32.229 115.982 32.1619 115.773 32.0279 115.621C31.8937 115.468 31.6935 115.392 31.4272 115.392C31.2618 115.392 31.1103 115.426 30.9726 115.494C30.8348 115.562 30.7245 115.656 30.6419 115.775C30.5611 115.894 30.5207 116.017 30.5207 116.146C30.5207 116.335 30.5574 116.51 30.6309 116.674C30.7044 116.837 30.8082 116.966 30.9422 117.061C31.0782 117.157 31.2325 117.204 31.4051 117.204ZM33.8959 115.995C33.9749 115.882 34.0952 115.736 34.2569 115.555L35.2323 114.523H35.775L34.5517 115.807L35.8605 117.537H35.3066L34.2403 116.113L33.8959 116.41V117.537H33.444V113.258H33.8959V115.528C33.8959 115.628 33.8886 115.784 33.8738 115.995H33.8959Z" fill="#5A7184"/>
<path opacity="0.1" d="M78.9037 87.3672H31.3422C30.4517 87.3672 29.7299 88.0876 29.7299 88.9762V98.6308C29.7299 99.5189 30.4517 100.24 31.3422 100.24H78.9037C79.794 100.24 80.5159 99.5189 80.5159 98.6308V88.9762C80.5159 88.0876 79.794 87.3672 78.9037 87.3672Z" fill="#B3BAC5"/>
<path d="M40.6674 95.8143V91.3093H41.351V95.8143H40.6674ZM42.3219 95.8143V92.6223H42.9281L42.9861 93.073C43.0892 92.91 43.2247 92.7812 43.3924 92.6866C43.5643 92.5922 43.7622 92.5451 43.9857 92.5451C44.493 92.5451 44.8456 92.7446 45.0433 93.1436C45.1595 92.959 45.3142 92.8134 45.5077 92.706C45.7054 92.5986 45.9183 92.5451 46.1462 92.5451C46.546 92.5451 46.8598 92.6654 47.0877 92.9055C47.3156 93.1455 47.4295 93.504 47.4295 93.9806V95.8143H46.7459V94.0512C46.7459 93.4334 46.5094 93.1241 46.0365 93.1241C45.7957 93.1241 45.5979 93.2142 45.4432 93.3944C45.2927 93.5746 45.2175 93.832 45.2175 94.1673V95.8143H44.5339V94.0512C44.5339 93.4334 44.2953 93.1241 43.8181 93.1241C43.5816 93.1241 43.386 93.2142 43.2312 93.3944C43.0807 93.5746 43.0054 93.832 43.0054 94.1673V95.8143H42.3219ZM48.3099 97.231V92.6223H48.9225L48.9935 93.1176C49.0966 92.9678 49.2385 92.8347 49.4191 92.7189C49.5997 92.603 49.8319 92.5451 50.1156 92.5451C50.4252 92.5451 50.6982 92.6179 50.9346 92.7639C51.1712 92.91 51.356 93.1092 51.4893 93.3628C51.6268 93.6155 51.6956 93.9035 51.6956 94.2249C51.6956 94.5463 51.6268 94.8343 51.4893 95.087C51.356 95.3369 51.1712 95.5338 50.9346 95.6796C50.6982 95.8208 50.423 95.8924 50.1092 95.8924C49.8598 95.8924 49.6384 95.8422 49.4449 95.7437C49.2558 95.6453 49.1053 95.5059 48.9935 95.3257V97.231H48.3099ZM49.9931 95.2997C50.2854 95.2997 50.5263 95.2012 50.7153 95.0034C50.9045 94.8018 50.9991 94.5407 50.9991 94.2184C50.9991 94.0085 50.9562 93.8217 50.8701 93.6582C50.7841 93.4957 50.6659 93.3693 50.5155 93.2792C50.365 93.1845 50.1909 93.1371 49.9931 93.1371C49.7007 93.1371 49.46 93.2384 49.2708 93.4399C49.0859 93.6415 48.9935 93.9007 48.9935 94.2184C48.9935 94.5407 49.0859 94.8018 49.2708 95.0034C49.46 95.2012 49.7007 95.2997 49.9931 95.2997ZM52.5156 95.8143V92.6223H53.1282L53.1863 93.2272C53.2981 93.0169 53.4529 92.852 53.6506 92.7317C53.8527 92.6074 54.0956 92.5451 54.3794 92.5451V93.2597H54.1924C54.0032 93.2597 53.8334 93.2913 53.6829 93.3563C53.5367 93.4158 53.4185 93.5217 53.3282 93.6712C53.2421 93.8171 53.1992 94.0205 53.1992 94.2825V95.8143H52.5156ZM56.4541 95.8924C56.1402 95.8924 55.8607 95.8227 55.6156 95.6861C55.3749 95.544 55.1857 95.3489 55.0482 95.1C54.9106 94.851 54.8418 94.5612 54.8418 94.2314C54.8418 93.897 54.9085 93.6025 55.0418 93.3498C55.1793 93.0962 55.3685 92.8991 55.6092 92.7574C55.8543 92.6159 56.1381 92.5451 56.4605 92.5451C56.7744 92.5451 57.0474 92.6159 57.2796 92.7574C57.5117 92.8946 57.6923 93.0795 57.8212 93.3108C57.9504 93.5431 58.0149 93.7985 58.0149 94.0772C58.0149 94.1199 58.0125 94.1673 58.0084 94.2184C58.0084 94.2658 58.006 94.3197 58.002 94.3791H55.5125C55.534 94.6884 55.6351 94.9244 55.8156 95.087C56.0005 95.2467 56.2133 95.3257 56.4541 95.3257C56.6476 95.3257 56.8087 95.282 56.9378 95.1966C57.0711 95.1065 57.1699 94.9866 57.2344 94.8362H57.918C57.832 95.1371 57.66 95.3879 57.4021 95.5895C57.1484 95.7911 56.8324 95.8924 56.4541 95.8924ZM56.4541 93.1046C56.2262 93.1046 56.0242 93.1743 55.8478 93.3108C55.6716 93.4446 55.5641 93.6452 55.5254 93.9156H57.3311C57.3183 93.6666 57.2301 93.4697 57.0667 93.3238C56.9033 93.178 56.6991 93.1046 56.4541 93.1046ZM60.0818 95.8924C59.6775 95.8924 59.3441 95.793 59.0822 95.596C58.8197 95.3982 58.6694 95.1371 58.6307 94.8111H59.3204C59.355 94.9569 59.4369 95.0832 59.5658 95.1901C59.6948 95.2932 59.8645 95.3452 60.0749 95.3452C60.2816 95.3452 60.432 95.3016 60.5267 95.2161C60.621 95.1306 60.6687 95.0312 60.6687 94.9198C60.6687 94.7572 60.6017 94.6476 60.4687 94.5918C60.3398 94.5315 60.1591 94.4776 59.927 94.4311C59.7464 94.3921 59.5658 94.341 59.3853 94.276C59.2087 94.2119 59.0603 94.1218 58.9403 94.0057C58.8242 93.8858 58.7662 93.7251 58.7662 93.5235C58.7662 93.2449 58.8734 93.0129 59.0886 92.8282C59.3035 92.6396 59.6045 92.5451 59.9914 92.5451C60.3482 92.5451 60.6363 92.6307 60.8556 92.8025C61.079 92.9743 61.2103 93.2161 61.249 93.53H60.5912C60.5694 93.3926 60.505 93.2848 60.3978 93.2077C60.2945 93.1306 60.1547 93.0925 59.9785 93.0925C59.8064 93.0925 59.673 93.1287 59.5787 93.2012C59.484 93.2699 59.4369 93.36 59.4369 93.4715C59.4369 93.583 59.5013 93.6712 59.6303 93.7353C59.7634 93.8004 59.9374 93.858 60.1527 93.91C60.3675 93.9564 60.5654 94.0122 60.746 94.0772C60.9306 94.1366 61.079 94.2268 61.191 94.3475C61.3026 94.4674 61.3587 94.6429 61.3587 94.8752C61.3627 95.1669 61.249 95.4093 61.0169 95.6025C60.7887 95.7958 60.4771 95.8924 60.0818 95.8924ZM63.4622 95.8924C63.058 95.8924 62.7251 95.793 62.4626 95.596C62.2003 95.3982 62.0499 95.1371 62.0112 94.8111H62.7013C62.7355 94.9569 62.8173 95.0832 62.9464 95.1901C63.0753 95.2932 63.245 95.3452 63.4558 95.3452C63.6622 95.3452 63.8125 95.3016 63.9073 95.2161C64.002 95.1306 64.0491 95.0312 64.0491 94.9198C64.0491 94.7572 63.9826 94.6476 63.8492 94.5918C63.7202 94.5315 63.5397 94.4776 63.3075 94.4311C63.1269 94.3921 62.9464 94.341 62.7657 94.276C62.5896 94.2119 62.4413 94.1218 62.3208 94.0057C62.2046 93.8858 62.1466 93.7251 62.1466 93.5235C62.1466 93.2449 62.2543 93.0129 62.4691 92.8282C62.6839 92.6396 62.985 92.5451 63.372 92.5451C63.7287 92.5451 64.0169 92.6307 64.2362 92.8025C64.4598 92.9743 64.5908 93.2161 64.6295 93.53H63.9717C63.9503 93.3926 63.8858 93.2848 63.7782 93.2077C63.6751 93.1306 63.5352 93.0925 63.3591 93.0925C63.187 93.0925 63.054 93.1287 62.9592 93.2012C62.8645 93.2699 62.8173 93.36 62.8173 93.4715C62.8173 93.583 62.8819 93.6712 63.0108 93.7353C63.1442 93.8004 63.3183 93.858 63.5332 93.91C63.7481 93.9564 63.9459 94.0122 64.1265 94.0772C64.3115 94.1366 64.4598 94.2268 64.5715 94.3475C64.6832 94.4674 64.7391 94.6429 64.7391 94.8752C64.7436 95.1669 64.6295 95.4093 64.3973 95.6025C64.1696 95.7958 63.8577 95.8924 63.4622 95.8924ZM65.9532 92.0173C65.8242 92.0173 65.7166 91.9787 65.6307 91.9014C65.5489 91.8198 65.5082 91.7192 65.5082 91.5989C65.5082 91.4786 65.5489 91.3801 65.6307 91.3029C65.7166 91.2212 65.8242 91.1805 65.9532 91.1805C66.0821 91.1805 66.1874 91.2212 66.2692 91.3029C66.355 91.3801 66.3981 91.4786 66.3981 91.5989C66.3981 91.7192 66.355 91.8198 66.2692 91.9014C66.1874 91.9787 66.0821 92.0173 65.9532 92.0173ZM65.6114 95.8143V92.6223H66.295V95.8143H65.6114ZM68.7738 95.8924C68.4687 95.8924 68.1934 95.8227 67.9483 95.6861C67.7077 95.544 67.5163 95.3489 67.3743 95.1C67.2325 94.8473 67.1616 94.5528 67.1616 94.2184C67.1616 93.884 67.2325 93.5923 67.3743 93.3433C67.5207 93.0897 67.7161 92.8946 67.9612 92.7574C68.2063 92.6159 68.4796 92.5451 68.7803 92.5451C69.0858 92.5451 69.3587 92.6159 69.5993 92.7574C69.8444 92.8946 70.0379 93.0897 70.1797 93.3433C70.326 93.5923 70.399 93.884 70.399 94.2184C70.399 94.5528 70.326 94.8473 70.1797 95.1C70.0379 95.3489 69.8444 95.544 69.5993 95.6861C69.3542 95.8227 69.0794 95.8924 68.7738 95.8924ZM68.7738 95.3062C68.9374 95.3062 69.0878 95.2653 69.2252 95.1836C69.3672 95.1018 69.4812 94.982 69.567 94.8231C69.6533 94.6606 69.6961 94.459 69.6961 94.2184C69.6961 93.9787 69.6533 93.779 69.567 93.6202C69.4856 93.4567 69.3736 93.335 69.2317 93.2532C69.0942 93.1715 68.9439 93.1306 68.7803 93.1306C68.617 93.1306 68.4643 93.1715 68.3224 93.2532C68.1849 93.335 68.0733 93.4567 67.987 93.6202C67.9012 93.779 67.8581 93.9787 67.8581 94.2184C67.8581 94.459 67.9012 94.6606 67.987 94.8231C68.0733 94.982 68.1849 95.1018 68.3224 95.1836C68.4602 95.2653 68.6106 95.3062 68.7738 95.3062ZM71.2192 95.8143V92.6223H71.8254L71.877 93.1826C71.9757 92.9848 72.1196 92.8303 72.3091 92.7189C72.5025 92.603 72.7238 92.5451 72.9734 92.5451C73.3603 92.5451 73.6634 92.6654 73.8827 92.9055C74.1059 93.1455 74.218 93.504 74.218 93.9806V95.8143H73.5409V94.0512C73.5409 93.4334 73.287 93.1241 72.7798 93.1241C72.5259 93.1241 72.3156 93.2142 72.1478 93.3944C71.9843 93.5746 71.9028 93.832 71.9028 94.1673V95.8143H71.2192ZM76.3804 95.8924C75.9762 95.8924 75.6432 95.793 75.3809 95.596C75.1184 95.3982 74.9681 95.1371 74.9294 94.8111H75.6194C75.6537 94.9569 75.7355 95.0832 75.8645 95.1901C75.9935 95.2932 76.1632 95.3452 76.374 95.3452C76.5803 95.3452 76.7307 95.3016 76.8254 95.2161C76.9201 95.1306 76.9673 95.0312 76.9673 94.9198C76.9673 94.7572 76.9008 94.6476 76.7674 94.5918C76.6384 94.5315 76.4578 94.4776 76.2256 94.4311C76.0451 94.3921 75.8645 94.341 75.684 94.276C75.5078 94.2119 75.3594 94.1218 75.2389 94.0057C75.1229 93.8858 75.0649 93.7251 75.0649 93.5235C75.0649 93.2449 75.1725 93.0129 75.3873 92.8282C75.6021 92.6396 75.9032 92.5451 76.2902 92.5451C76.6468 92.5451 76.9351 92.6307 77.1543 92.8025C77.378 92.9743 77.509 93.2161 77.5477 93.53H76.8899C76.8685 93.3926 76.8041 93.2848 76.6965 93.2077C76.5933 93.1306 76.4534 93.0925 76.2772 93.0925C76.1051 93.0925 75.9721 93.1287 75.8774 93.2012C75.7826 93.2699 75.7355 93.36 75.7355 93.4715C75.7355 93.583 75.8 93.6712 75.929 93.7353C76.0624 93.8004 76.2365 93.858 76.4514 93.91C76.6662 93.9564 76.8641 94.0122 77.0447 94.0772C77.2297 94.1366 77.378 94.2268 77.4896 94.3475C77.6013 94.4674 77.6574 94.6429 77.6574 94.8752C77.6617 95.1669 77.5477 95.4093 77.3156 95.6025C77.0878 95.7958 76.7759 95.8924 76.3804 95.8924Z" fill="#8C98A4"/>
<path fill-rule="evenodd" clip-rule="evenodd" d="M35.3727 95.4121C36.2631 95.4121 36.985 94.6922 36.985 93.8032C36.985 92.9148 36.2631 92.1943 35.3727 92.1943C34.4824 92.1943 33.7605 92.9148 33.7605 93.8032C33.7605 94.6922 34.4824 95.4121 35.3727 95.4121Z" fill="#36B37E"/>
<path opacity="0.1" d="M118.807 87.3672H88.5771C87.6867 87.3672 86.9648 88.0876 86.9648 88.9762V98.6308C86.9648 99.5189 87.6867 100.24 88.5771 100.24H118.807C119.697 100.24 120.419 99.5189 120.419 98.6308V88.9762C120.419 88.0876 119.697 87.3672 118.807 87.3672Z" fill="#B3BAC5"/>
<path d="M97.9028 95.8143V91.3093H99.4568C99.8133 91.3093 100.106 91.3692 100.334 91.4895C100.566 91.6098 100.738 91.7727 100.849 91.9787C100.962 92.1802 101.017 92.4055 101.017 92.6545C101.017 92.9333 100.942 93.1863 100.792 93.4139C100.645 93.6415 100.416 93.805 100.101 93.9035L101.063 95.8143H100.269L99.3919 94.0001H98.5861V95.8143H97.9028ZM98.5861 93.4845H99.4178C99.7279 93.4845 99.9535 93.4093 100.096 93.2597C100.241 93.1092 100.315 92.914 100.315 92.6738C100.315 92.4336 100.243 92.2425 100.101 92.1009C99.96 91.9549 99.7298 91.8821 99.4113 91.8821H98.5861V93.4845ZM103.182 95.8924C102.867 95.8924 102.588 95.8236 102.343 95.6861C102.103 95.544 101.913 95.3489 101.776 95.1C101.638 94.851 101.57 94.5621 101.57 94.2314C101.57 93.897 101.636 93.6025 101.769 93.3498C101.907 93.0962 102.096 92.8991 102.336 92.7574C102.582 92.6159 102.866 92.5451 103.188 92.5451C103.502 92.5451 103.775 92.6159 104.007 92.7574C104.24 92.8946 104.42 93.0795 104.549 93.3108C104.678 93.5431 104.743 93.7985 104.743 94.0772C104.743 94.1199 104.741 94.1673 104.736 94.2184C104.736 94.2658 104.734 94.3197 104.73 94.3791H102.24C102.261 94.6884 102.362 94.9244 102.543 95.087C102.728 95.2467 102.941 95.3257 103.182 95.3257C103.375 95.3257 103.537 95.283 103.666 95.1966C103.799 95.1065 103.898 94.9866 103.962 94.8362H104.645C104.56 95.1371 104.388 95.3879 104.13 95.5895C103.877 95.7911 103.56 95.8924 103.182 95.8924ZM103.182 93.1046C102.954 93.1046 102.751 93.1743 102.575 93.3108C102.4 93.4446 102.292 93.6452 102.253 93.9156H104.058C104.045 93.6666 103.957 93.4697 103.794 93.3238C103.631 93.178 103.427 93.1046 103.182 93.1046ZM106.616 95.8924C106.345 95.8924 106.121 95.8469 105.945 95.7567C105.768 95.6666 105.638 95.5487 105.552 95.4028C105.466 95.2523 105.423 95.0898 105.423 94.9133C105.423 94.6048 105.543 94.3605 105.784 94.1803C106.025 94.0001 106.368 93.91 106.816 93.91H107.654V93.8515C107.654 93.6025 107.585 93.4158 107.448 93.2913C107.314 93.1678 107.14 93.1046 106.925 93.1046C106.736 93.1046 106.571 93.152 106.428 93.2467C106.291 93.3368 106.208 93.4715 106.177 93.6517H105.494C105.515 93.4204 105.592 93.2226 105.726 93.06C105.863 92.8926 106.036 92.7659 106.242 92.6802C106.453 92.5901 106.682 92.5451 106.932 92.5451C107.379 92.5451 107.725 92.663 107.97 92.8991C108.215 93.1306 108.338 93.4483 108.338 93.8515V95.8143H107.745L107.686 95.2672C107.596 95.4437 107.464 95.5914 107.293 95.7122C107.121 95.832 106.895 95.8924 106.616 95.8924ZM106.752 95.3387C106.936 95.3387 107.09 95.2951 107.216 95.2096C107.345 95.1195 107.443 95.0015 107.512 94.8557C107.585 94.7098 107.631 94.5491 107.647 94.3726H106.887C106.616 94.3726 106.422 94.42 106.306 94.5147C106.195 94.6095 106.139 94.7265 106.139 94.8687C106.139 95.0145 106.192 95.1306 106.299 95.2161C106.412 95.2978 106.562 95.3387 106.752 95.3387ZM110.73 95.8924C110.417 95.8924 110.135 95.8208 109.886 95.6796C109.64 95.5375 109.447 95.3424 109.305 95.0935C109.168 94.8408 109.099 94.5491 109.099 94.2184C109.099 93.8886 109.168 93.5988 109.305 93.3498C109.447 93.0962 109.64 92.8991 109.886 92.7574C110.135 92.6159 110.417 92.5451 110.73 92.5451C111.127 92.5451 111.457 92.648 111.724 92.854C111.995 93.06 112.169 93.3387 112.246 93.6908H111.53C111.488 93.5152 111.393 93.3777 111.246 93.2792C111.101 93.1798 110.929 93.1306 110.73 93.1306C110.563 93.1306 110.408 93.1743 110.266 93.2597C110.124 93.3415 110.011 93.4632 109.925 93.6267C109.839 93.7855 109.795 93.9824 109.795 94.2184C109.795 94.4544 109.839 94.6541 109.925 94.8166C110.011 94.9764 110.124 95.0981 110.266 95.1836C110.408 95.27 110.563 95.3127 110.73 95.3127C110.929 95.3127 111.101 95.2635 111.246 95.165C111.393 95.0665 111.488 94.9263 111.53 94.746H112.246C112.173 95.0898 112.001 95.3666 111.73 95.5765C111.459 95.7874 111.127 95.8924 110.73 95.8924ZM113.069 95.8143V91.1805H113.752V93.1371C113.86 92.9526 114.007 92.809 114.197 92.706C114.391 92.5986 114.603 92.5451 114.835 92.5451C115.218 92.5451 115.519 92.6654 115.739 92.9055C115.958 93.1455 116.067 93.504 116.067 93.9806V95.8143H115.39V94.0512C115.39 93.4334 115.143 93.1241 114.649 93.1241C114.391 93.1241 114.175 93.2142 114.004 93.3944C113.836 93.5746 113.752 93.832 113.752 94.1673V95.8143H113.069Z" fill="#8C98A4"/>
<path fill-rule="evenodd" clip-rule="evenodd" d="M92.6078 95.4121C93.498 95.4121 94.2203 94.6922 94.2203 93.8032C94.2203 92.9148 93.498 92.1943 92.6078 92.1943C91.7173 92.1943 90.9955 92.9148 90.9955 93.8032C90.9955 94.6922 91.7173 95.4121 92.6078 95.4121Z" fill="#FAAD13"/>
<path d="M45.8524 115.325H217.759" stroke="#EEF0F2" stroke-dasharray="4 4"/>
<path d="M45.8524 135.439H217.759" stroke="#EEF0F2" stroke-dasharray="4 4"/>
<path d="M45.8524 155.552H217.759" stroke="#EEF0F2" stroke-dasharray="4 4"/>
<path d="M45.8524 175.665H217.759" stroke="#EEF0F2" stroke-dasharray="4 4"/>
<path d="M45.8524 195.779H217.759" stroke="#EEF0F2" stroke-dasharray="4 4"/>
<path d="M79.3074 168.688L78.9999 168.169L79.3074 168.688ZM79.5207 167.862L80.0415 167.555L79.5207 167.862ZM76.6968 170.225L76.3896 169.706L76.2836 169.768L76.2107 169.867L76.6968 170.225ZM61.2522 191.109L61.7387 191.468L61.2522 191.109ZM60.837 191.67L60.4118 192.098L60.9088 192.589L61.3235 192.029L60.837 191.67ZM60.3405 191.179L60.7657 190.75L60.3405 191.179ZM45.4271 176.451L45.8523 176.023L45.4271 176.451ZM45.4226 175.598L45.8523 176.023L45.4226 175.598ZM46.2776 175.594L46.7029 175.164L46.2776 175.594ZM60.6943 189.831L60.2692 190.26L60.7657 190.75L61.1809 190.189L60.6943 189.831ZM75.7972 169.41L76.2836 169.768L75.7972 169.41ZM75.8705 169.31L75.563 168.791L75.457 168.853L75.384 168.953L75.8705 169.31ZM75.9765 169.248L75.669 168.729L75.9765 169.248ZM78.6928 167.648L78.3856 167.129L78.6928 167.648ZM79.6146 169.207C80.1897 168.869 80.3807 168.13 80.0415 167.555L78.9999 168.169L79.6146 169.207ZM77.0043 170.745L79.6146 169.207L78.9999 168.169L76.3896 169.706L77.0043 170.745ZM61.7387 191.468L77.1833 170.583L76.2107 169.867L60.7657 190.75L61.7387 191.468ZM61.3235 192.029L61.7387 191.468L60.7657 190.75L60.3506 191.311L61.3235 192.029ZM59.9152 191.609L60.4118 192.098L61.2623 191.241L60.7657 190.75L59.9152 191.609ZM45.0018 176.88L59.9152 191.609L60.7657 190.75L45.8523 176.023L45.0018 176.88ZM44.9928 175.174C44.5232 175.648 44.5272 176.411 45.0018 176.88L45.8523 176.023L44.9928 175.174ZM46.7029 175.164C46.2282 174.695 45.4625 174.7 44.9928 175.174L45.8523 176.023L46.7029 175.164ZM61.1196 189.402L46.7029 175.164L45.8523 176.023L60.2692 190.26L61.1196 189.402ZM75.3107 169.051L60.2079 189.473L61.1809 190.189L76.2836 169.768L75.3107 169.051ZM75.384 168.953L75.3107 169.051L76.2836 169.768L76.3566 169.669L75.384 168.953ZM75.669 168.729L75.563 168.791L76.1776 169.83L76.2836 169.768L75.669 168.729ZM78.3856 167.129L75.669 168.729L76.2836 169.768L78.9999 168.169L78.3856 167.129ZM80.0415 167.555C79.7021 166.981 78.9608 166.79 78.3856 167.129L78.9999 168.169L80.0415 167.555Z" fill="#36B37E"/>
<path d="M234.083 125.18C234.083 126.513 233.001 127.594 231.665 127.594C230.329 127.594 229.247 126.513 229.247 125.18C229.247 123.847 230.329 122.767 231.665 122.767C233.001 122.767 234.083 123.847 234.083 125.18Z" fill="#36B37E" stroke="white" stroke-width="2"/>
<path d="M205.062 149.316C205.062 150.649 203.98 151.73 202.644 151.73C201.308 151.73 200.226 150.649 200.226 149.316C200.226 147.983 201.308 146.903 202.644 146.903C203.98 146.903 205.062 147.983 205.062 149.316Z" fill="#36B37E" stroke="white" stroke-width="2"/>
<path d="M192.164 140.064C192.164 141.398 191.082 142.478 189.746 142.478C188.41 142.478 187.328 141.398 187.328 140.064C187.328 138.731 188.41 137.651 189.746 137.651C191.082 137.651 192.164 138.731 192.164 140.064Z" fill="#36B37E" stroke="white" stroke-width="2"/>
<path d="M169.19 131.617C169.19 132.95 168.107 134.03 166.772 134.03C165.436 134.03 164.353 132.95 164.353 131.617C164.353 130.284 165.436 129.204 166.772 129.204C168.107 129.204 169.19 130.284 169.19 131.617Z" fill="#36B37E" stroke="white" stroke-width="2"/>
<path d="M147.828 155.351C147.828 156.684 146.744 157.764 145.409 157.764C144.074 157.764 142.99 156.684 142.99 155.351C142.99 154.018 144.074 152.937 145.409 152.937C146.744 152.937 147.828 154.018 147.828 155.351Z" fill="#36B37E" stroke="white" stroke-width="2"/>
<path d="M124.047 165.81C124.047 167.143 122.964 168.223 121.629 168.223C120.293 168.223 119.21 167.143 119.21 165.81C119.21 164.477 120.293 163.396 121.629 163.396C122.964 163.396 124.047 164.477 124.047 165.81Z" fill="#36B37E" stroke="white" stroke-width="2"/>
<path d="M103.088 155.351C103.088 156.684 102.005 157.764 100.669 157.764C99.3334 157.764 98.251 156.684 98.251 155.351C98.251 154.018 99.3334 152.937 100.669 152.937C102.005 152.937 103.088 154.018 103.088 155.351Z" fill="#36B37E" stroke="white" stroke-width="2"/>
<path d="M63.5873 190.75C63.5873 192.083 62.5047 193.164 61.1689 193.164C59.8332 193.164 58.7505 192.083 58.7505 190.75C58.7505 189.417 59.8332 188.337 61.1689 188.337C62.5047 188.337 63.5873 189.417 63.5873 190.75Z" fill="#36B37E" stroke="white" stroke-width="2"/>
<path d="M45.8524 138.657L59.9597 151.73L76.2837 161.586L100.468 185.923L121.83 175.062L145.812 143.483L166.569 151.73L188.94 163.799L202.442 133.226L231.262 141.272" stroke="#FAAD13" stroke-width="3" stroke-linecap="round"/>
<path opacity="0.1" fill-rule="evenodd" clip-rule="evenodd" d="M45.8524 138.657L59.9597 151.73L76.2837 161.586L100.468 185.923L121.83 175.062L145.812 143.483L166.57 151.73L188.94 163.799L202.442 133.226L230.052 141.674C230.052 141.674 230.052 157.966 230.052 195.979C168.25 195.979 45.8524 195.979 45.8524 195.979V138.657Z" fill="url(#paint15_linear_1_471)"/>
<path d="M63.5873 152.535C63.5873 153.868 62.5047 154.949 61.1689 154.949C59.8332 154.949 58.7505 153.868 58.7505 152.535C58.7505 151.201 59.8332 150.121 61.1689 150.121C62.5047 150.121 63.5873 151.201 63.5873 152.535Z" fill="#FAAD13" stroke="white" stroke-width="2"/>
<path d="M103.088 185.521C103.088 186.854 102.005 187.935 100.669 187.935C99.3334 187.935 98.251 186.854 98.251 185.521C98.251 184.187 99.3334 183.107 100.669 183.107C102.005 183.107 103.088 184.187 103.088 185.521Z" fill="#FAAD13" stroke="white" stroke-width="2"/>
<path d="M124.047 175.062C124.047 176.395 122.964 177.476 121.629 177.476C120.293 177.476 119.21 176.395 119.21 175.062C119.21 173.728 120.293 172.648 121.629 172.648C122.964 172.648 124.047 173.728 124.047 175.062Z" fill="#FAAD13" stroke="white" stroke-width="2"/>
<path d="M147.828 143.283C147.828 144.616 146.744 145.696 145.409 145.696C144.074 145.696 142.99 144.616 142.99 143.283C142.99 141.95 144.074 140.869 145.409 140.869C146.744 140.869 147.828 141.95 147.828 143.283Z" fill="#FAAD13" stroke="white" stroke-width="2"/>
<path d="M169.593 152.132C169.593 153.466 168.511 154.546 167.175 154.546C165.839 154.546 164.756 153.466 164.756 152.132C164.756 150.799 165.839 149.719 167.175 149.719C168.511 149.719 169.593 150.799 169.593 152.132Z" fill="#FAAD13" stroke="white" stroke-width="2"/>
<path d="M191.358 163.799C191.358 165.132 190.276 166.212 188.94 166.212C187.604 166.212 186.522 165.132 186.522 163.799C186.522 162.465 187.604 161.384 188.94 161.384C190.276 161.384 191.358 162.465 191.358 163.799Z" fill="#FAAD13" stroke="white" stroke-width="2"/>
<path d="M205.062 133.628C205.062 134.961 203.98 136.042 202.644 136.042C201.308 136.042 200.226 134.961 200.226 133.628C200.226 132.295 201.308 131.215 202.644 131.215C203.98 131.215 205.062 132.295 205.062 133.628Z" fill="#FAAD13" stroke="white" stroke-width="2"/>
<path d="M234.083 141.674C234.083 143.007 233.001 144.087 231.665 144.087C230.329 144.087 229.247 143.007 229.247 141.674C229.247 140.341 230.329 139.26 231.665 139.26C233.001 139.26 234.083 140.341 234.083 141.674Z" fill="#FAAD13" stroke="white" stroke-width="2"/>
<path fill-rule="evenodd" clip-rule="evenodd" d="M192.971 70.4718C200.094 70.4718 205.869 64.7085 205.869 57.5991C205.869 50.4899 200.094 44.7266 192.971 44.7266C185.847 44.7266 180.073 50.4899 180.073 57.5991C180.073 64.7085 185.847 70.4718 192.971 70.4718Z" fill="#FDF5E6"/>
<path d="M192.362 58.2681C191.916 58.0409 191.612 57.5816 191.612 57.052C191.612 56.2967 192.232 55.6843 192.997 55.6843C193.761 55.6843 194.381 56.2967 194.381 57.052C194.381 57.5982 194.057 58.0695 193.588 58.2887L195.364 62.1862C195.552 62.5994 195.366 63.0853 194.947 63.2713C194.84 63.3189 194.724 63.3435 194.606 63.3435H191.334C190.875 63.3435 190.504 62.9761 190.504 62.5229C190.504 62.4068 190.529 62.292 190.577 62.1862L192.362 58.2681Z" fill="#FAAD13"/>
<path fill-rule="evenodd" clip-rule="evenodd" d="M190.803 60.8796C190.933 60.6938 190.887 60.438 190.701 60.3083C189.633 59.5654 188.997 58.3564 188.997 57.052C188.997 54.8614 190.775 53.0857 192.971 53.0857C195.165 53.0857 196.945 54.8614 196.945 57.052C196.945 58.3564 196.308 59.5654 195.24 60.3083C195.054 60.438 195.008 60.6938 195.138 60.8796C195.268 61.0655 195.524 61.1111 195.71 60.9816C196.999 60.0856 197.767 58.6256 197.767 57.052C197.767 54.4082 195.619 52.265 192.971 52.265C190.321 52.265 188.174 54.4082 188.174 57.052C188.174 58.6256 188.943 60.0856 190.23 60.9816C190.417 61.1111 190.673 61.0655 190.803 60.8796ZM191.568 59.4382C191.711 59.262 191.683 59.0036 191.507 58.8611C190.959 58.4188 190.641 57.7586 190.641 57.052C190.641 55.7679 191.684 54.7269 192.971 54.7269C194.257 54.7269 195.3 55.7679 195.3 57.052C195.3 57.7586 194.982 58.4188 194.434 58.8611C194.257 59.0036 194.23 59.262 194.372 59.4382C194.515 59.6145 194.774 59.6418 194.951 59.4993C195.692 58.9014 196.122 58.0071 196.122 57.052C196.122 55.3147 194.711 53.9063 192.971 53.9063C191.23 53.9063 189.818 55.3147 189.818 57.052C189.818 58.0071 190.249 58.9014 190.99 59.4993C191.166 59.6418 191.426 59.6145 191.568 59.4382Z" fill="#FAAD13"/>
<path fill-rule="evenodd" clip-rule="evenodd" d="M138.154 224.943C145.278 224.943 151.052 219.18 151.052 212.071C151.052 204.961 145.278 199.198 138.154 199.198C131.031 199.198 125.256 204.961 125.256 212.071C125.256 219.18 131.031 224.943 138.154 224.943Z" fill="#EAF7F2"/>
<path fill-rule="evenodd" clip-rule="evenodd" d="M138.154 209.609C136.162 209.609 134.385 210.967 133.516 213.06C133.488 213.127 133.488 213.202 133.516 213.269C134.385 215.362 136.162 216.721 138.154 216.721C140.145 216.721 141.924 215.362 142.792 213.269C142.82 213.202 142.82 213.127 142.792 213.06C141.924 210.967 140.145 209.609 138.154 209.609ZM136.783 213.165C136.783 213.92 137.397 214.532 138.154 214.532C138.911 214.532 139.524 213.92 139.524 213.165C139.524 212.409 138.911 211.797 138.154 211.797C137.397 211.797 136.783 212.409 136.783 213.165Z" fill="#36B37E"/>
<path fill-rule="evenodd" clip-rule="evenodd" d="M138.154 207.284C137.927 207.284 137.742 207.468 137.742 207.694V208.788C137.742 209.015 137.927 209.199 138.154 209.199C138.381 209.199 138.565 209.015 138.565 208.788V207.694C138.565 207.468 138.381 207.284 138.154 207.284ZM138.976 213.165C138.976 213.618 138.609 213.985 138.154 213.985C137.7 213.985 137.331 213.618 137.331 213.165C137.331 212.712 137.7 212.344 138.154 212.344C138.609 212.344 138.976 212.712 138.976 213.165ZM142.248 207.951C142.409 207.79 142.669 207.79 142.83 207.951C142.99 208.112 142.99 208.371 142.83 208.532L141.733 209.625C141.573 209.786 141.313 209.786 141.152 209.625C140.992 209.465 140.992 209.205 141.152 209.045L142.248 207.951ZM135.155 209.045L134.059 207.951C133.899 207.79 133.638 207.79 133.478 207.951C133.317 208.112 133.317 208.371 133.478 208.532L134.574 209.625C134.735 209.786 134.995 209.786 135.155 209.625C135.317 209.465 135.317 209.205 135.155 209.045Z" fill="#36B37E"/>
<path d="M220.939 413.502H37.1326C33.031 413.502 29.7061 416.829 29.7061 420.934V527.782C29.7061 531.886 33.031 535.213 37.1326 535.213H220.939C225.041 535.213 228.366 531.886 228.366 527.782V420.934C228.366 416.829 225.041 413.502 220.939 413.502Z" fill="white"/>
<path d="M149.478 437.032H89.9443C88.9189 437.032 88.0876 437.864 88.0876 438.89V440.043C88.0876 441.069 88.9189 441.901 89.9443 441.901H149.478C150.503 441.901 151.334 441.069 151.334 440.043V438.89C151.334 437.864 150.503 437.032 149.478 437.032Z" fill="#D5D9E0"/>
<path d="M125.152 451.638H89.9443C88.9189 451.638 88.0876 452.47 88.0876 453.496V454.649C88.0876 455.675 88.9189 456.507 89.9443 456.507H125.152C126.177 456.507 127.009 455.675 127.009 454.649V453.496C127.009 452.47 126.177 451.638 125.152 451.638Z" fill="#D5D9E0"/>
<path opacity="0.1" d="M207.049 444.335H188.058C187.033 444.335 186.201 445.167 186.201 446.193V447.345C186.201 448.372 187.033 449.203 188.058 449.203H207.049C208.074 449.203 208.905 448.372 208.905 447.345V446.193C208.905 445.167 208.074 444.335 207.049 444.335Z" fill="#5A7184"/>
<path fill-rule="evenodd" clip-rule="evenodd" d="M62.9511 460.564C70.5641 460.564 76.7356 454.388 76.7356 446.77C76.7356 439.151 70.5641 432.976 62.9511 432.976C55.3382 432.976 49.1666 439.151 49.1666 446.77C49.1666 454.388 55.3382 460.564 62.9511 460.564Z" fill="#005490"/>
<path d="M149.478 484.094H89.9443C88.9189 484.094 88.0876 484.926 88.0876 485.952V487.104C88.0876 488.13 88.9189 488.962 89.9443 488.962H149.478C150.503 488.962 151.334 488.13 151.334 487.104V485.952C151.334 484.926 150.503 484.094 149.478 484.094Z" fill="#D5D9E0"/>
<path d="M125.152 498.7H89.9443C88.9189 498.7 88.0876 499.532 88.0876 500.558V501.71C88.0876 502.736 88.9189 503.568 89.9443 503.568H125.152C126.177 503.568 127.009 502.736 127.009 501.71V500.558C127.009 499.532 126.177 498.7 125.152 498.7Z" fill="#D5D9E0"/>
<path opacity="0.1" d="M207.049 491.397H188.058C187.033 491.397 186.201 492.229 186.201 493.255V494.408C186.201 495.434 187.033 496.266 188.058 496.266H207.049C208.074 496.266 208.905 495.434 208.905 494.408V493.255C208.905 492.229 208.074 491.397 207.049 491.397Z" fill="#5A7184"/>
<path fill-rule="evenodd" clip-rule="evenodd" d="M62.9511 507.625C70.5641 507.625 76.7356 501.449 76.7356 493.831C76.7356 486.213 70.5641 480.037 62.9511 480.037C55.3382 480.037 49.1666 486.213 49.1666 493.831C49.1666 501.449 55.3382 507.625 62.9511 507.625Z" fill="#005490"/>
<g filter="url(#filter3_i_1_471)">
<path d="M115.43 19.7449C115.43 18.3666 116.546 17.2494 117.924 17.2494H140.725C142.102 17.2494 143.219 18.3666 143.219 19.7449C143.219 21.1232 142.102 22.2406 140.725 22.2406H117.924C116.546 22.2406 115.43 21.1232 115.43 19.7449Z" fill="#161616"/>
</g>
<g filter="url(#filter4_f_1_471)">
<path d="M117.924 18.1783H140.725C141.589 18.1783 142.29 18.8797 142.29 19.7449C142.29 20.6102 141.589 21.3116 140.725 21.3116H117.924C117.06 21.3116 116.359 20.6102 116.359 19.7449C116.359 18.8797 117.06 18.1783 117.924 18.1783Z" stroke="black" stroke-opacity="0.32" stroke-width="2"/>
</g>
<path d="M117.924 17.7139H140.725C141.846 17.7139 142.754 18.6232 142.754 19.7449C142.754 20.8667 141.846 21.7761 140.725 21.7761H117.924C116.802 21.7761 115.895 20.8667 115.895 19.7449C115.895 18.6232 116.802 17.7139 117.924 17.7139Z" stroke="url(#paint16_linear_1_471)"/>
<path d="M148.918 19.7449C148.918 16.9884 151.152 14.7538 153.906 14.7538C156.662 14.7538 158.894 16.9884 158.894 19.7449C158.894 22.5014 156.662 24.736 153.906 24.736C151.152 24.736 148.918 22.5014 148.918 19.7449Z" fill="url(#paint17_radial_1_471)"/>
<path d="M148.918 19.7449C148.918 16.9884 151.152 14.7538 153.906 14.7538C156.662 14.7538 158.894 16.9884 158.894 19.7449C158.894 22.5014 156.662 24.736 153.906 24.736C151.152 24.736 148.918 22.5014 148.918 19.7449Z" fill="url(#paint18_radial_1_471)"/>
<path d="M156.401 19.7449C156.401 18.3666 155.284 17.2494 153.906 17.2494C152.53 17.2494 151.413 18.3666 151.413 19.7449C151.413 21.1232 152.53 22.2406 153.906 22.2406C155.284 22.2406 156.401 21.1232 156.401 19.7449Z" fill="url(#paint19_linear_1_471)"/>
<path d="M156.401 19.7449C156.401 18.3666 155.284 17.2494 153.906 17.2494C152.53 17.2494 151.413 18.3666 151.413 19.7449C151.413 21.1232 152.53 22.2406 153.906 22.2406C155.284 22.2406 156.401 21.1232 156.401 19.7449Z" fill="url(#paint20_radial_1_471)"/>
<path d="M156.401 19.7449C156.401 18.3666 155.284 17.2494 153.906 17.2494C152.53 17.2494 151.413 18.3666 151.413 19.7449C151.413 21.1232 152.53 22.2406 153.906 22.2406C155.284 22.2406 156.401 21.1232 156.401 19.7449Z" fill="url(#paint21_radial_1_471)"/>
<path d="M156.401 19.7449C156.401 18.3666 155.284 17.2494 153.906 17.2494C152.53 17.2494 151.413 18.3666 151.413 19.7449C151.413 21.1232 152.53 22.2406 153.906 22.2406C155.284 22.2406 156.401 21.1232 156.401 19.7449Z" fill="url(#paint22_radial_1_471)"/>
<path d="M156.401 19.7449C156.401 18.3666 155.284 17.2494 153.906 17.2494C152.53 17.2494 151.413 18.3666 151.413 19.7449C151.413 21.1232 152.53 22.2406 153.906 22.2406C155.284 22.2406 156.401 21.1232 156.401 19.7449Z" fill="url(#paint23_radial_1_471)"/>
</g>
</g>
<defs>
<filter id="filter0_i_1_471" x="1.78137" y="0.136841" width="254.73" height="523" filterUnits="userSpaceOnUse" color-interpolation-filters="sRGB">
<feFlood flood-opacity="0" result="BackgroundImageFix"/>
<feBlend mode="normal" in="SourceGraphic" in2="BackgroundImageFix" result="shape"/>
<feColorMatrix in="SourceAlpha" type="matrix" values="0 0 0 0 0 0 0 0 0 0 0 0 0 0 0 0 0 0 127 0" result="hardAlpha"/>
<feOffset/>
<feGaussianBlur stdDeviation="8"/>
<feComposite in2="hardAlpha" operator="arithmetic" k2="-1" k3="1"/>
<feColorMatrix type="matrix" values="0 0 0 0 0 0 0 0 0 0 0 0 0 0 0 0 0 0 0.32 0"/>
<feBlend mode="normal" in2="shape" result="effect1_innerShadow_1_471"/>
</filter>
<filter id="filter1_ii_1_471" x="1.78137" y="0.136841" width="254.73" height="523" filterUnits="userSpaceOnUse" color-interpolation-filters="sRGB">
<feFlood flood-opacity="0" result="BackgroundImageFix"/>
<feBlend mode="normal" in="SourceGraphic" in2="BackgroundImageFix" result="shape"/>
<feColorMatrix in="SourceAlpha" type="matrix" values="0 0 0 0 0 0 0 0 0 0 0 0 0 0 0 0 0 0 127 0" result="hardAlpha"/>
<feOffset/>
<feGaussianBlur stdDeviation="5"/>
<feComposite in2="hardAlpha" operator="arithmetic" k2="-1" k3="1"/>
<feColorMatrix type="matrix" values="0 0 0 0 1 0 0 0 0 1 0 0 0 0 1 0 0 0 0.88 0"/>
<feBlend mode="normal" in2="shape" result="effect1_innerShadow_1_471"/>
<feColorMatrix in="SourceAlpha" type="matrix" values="0 0 0 0 0 0 0 0 0 0 0 0 0 0 0 0 0 0 127 0" result="hardAlpha"/>
<feOffset/>
<feGaussianBlur stdDeviation="2.5"/>
<feComposite in2="hardAlpha" operator="arithmetic" k2="-1" k3="1"/>
<feColorMatrix type="matrix" values="0 0 0 0 0 0 0 0 0 0 0 0 0 0 0 0 0 0 1 0"/>
<feBlend mode="normal" in2="effect1_innerShadow_1_471" result="effect2_innerShadow_1_471"/>
</filter>
<filter id="filter2_d_1_471" x="11.7061" y="242.593" width="235.588" height="187.794" filterUnits="userSpaceOnUse" color-interpolation-filters="sRGB">
<feFlood flood-opacity="0" result="BackgroundImageFix"/>
<feColorMatrix in="SourceAlpha" type="matrix" values="0 0 0 0 0 0 0 0 0 0 0 0 0 0 0 0 0 0 127 0" result="hardAlpha"/>
<feOffset dy="20"/>
<feGaussianBlur stdDeviation="9"/>
<feColorMatrix type="matrix" values="0 0 0 0 0 0 0 0 0 0.136752 0 0 0 0 0.333333 0 0 0 0.03 0"/>
<feBlend mode="normal" in2="BackgroundImageFix" result="effect1_dropShadow_1_471"/>
<feBlend mode="normal" in="SourceGraphic" in2="effect1_dropShadow_1_471" result="shape"/>
</filter>
<filter id="filter3_i_1_471" x="115.43" y="17.2494" width="27.7882" height="4.99121" filterUnits="userSpaceOnUse" color-interpolation-filters="sRGB">
<feFlood flood-opacity="0" result="BackgroundImageFix"/>
<feBlend mode="normal" in="SourceGraphic" in2="BackgroundImageFix" result="shape"/>
<feColorMatrix in="SourceAlpha" type="matrix" values="0 0 0 0 0 0 0 0 0 0 0 0 0 0 0 0 0 0 127 0" result="hardAlpha"/>
<feOffset/>
<feGaussianBlur stdDeviation="4"/>
<feComposite in2="hardAlpha" operator="arithmetic" k2="-1" k3="1"/>
<feColorMatrix type="matrix" values="0 0 0 0 0 0 0 0 0 0 0 0 0 0 0 0 0 0 0.48 0"/>
<feBlend mode="normal" in2="shape" result="effect1_innerShadow_1_471"/>
</filter>
<filter id="filter4_f_1_471" x="114.359" y="16.1783" width="29.9315" height="7.1333" filterUnits="userSpaceOnUse" color-interpolation-filters="sRGB">
<feFlood flood-opacity="0" result="BackgroundImageFix"/>
<feBlend mode="normal" in="SourceGraphic" in2="BackgroundImageFix" result="shape"/>
<feGaussianBlur stdDeviation="0.5" result="effect1_foregroundBlur_1_471"/>
</filter>
<linearGradient id="paint0_linear_1_471" x1="0.356323" y1="47.3745" x2="6.41284" y2="47.3745" gradientUnits="userSpaceOnUse">
<stop offset="0.109375" stop-color="#D1D1D1"/>
<stop offset="0.317708" stop-color="#E3E3E3"/>
<stop offset="0.552083" stop-color="#D2D2D2"/>
<stop offset="0.807292" stop-color="#E6E6E6"/>
</linearGradient>
<linearGradient id="paint1_linear_1_471" x1="0.356323" y1="478.395" x2="6.41284" y2="478.395" gradientUnits="userSpaceOnUse">
<stop offset="0.109375" stop-color="#D1D1D1"/>
<stop offset="0.317708" stop-color="#E3E3E3"/>
<stop offset="0.552083" stop-color="#D2D2D2"/>
<stop offset="0.807292" stop-color="#E6E6E6"/>
</linearGradient>
<linearGradient id="paint2_linear_1_471" x1="251.88" y1="47.3745" x2="257.936" y2="47.3745" gradientUnits="userSpaceOnUse">
<stop offset="0.0988321" stop-color="#E6E6E6"/>
<stop offset="0.368786" stop-color="#D2D2D2"/>
<stop offset="0.624532" stop-color="#E3E3E3"/>
<stop offset="0.798581" stop-color="#D1D1D1"/>
</linearGradient>
<linearGradient id="paint3_linear_1_471" x1="251.88" y1="478.395" x2="257.936" y2="478.395" gradientUnits="userSpaceOnUse">
<stop offset="0.0988321" stop-color="#E6E6E6"/>
<stop offset="0.368786" stop-color="#D2D2D2"/>
<stop offset="0.624532" stop-color="#E3E3E3"/>
<stop offset="0.798581" stop-color="#D1D1D1"/>
</linearGradient>
<linearGradient id="paint4_linear_1_471" x1="199.687" y1="-2.35876" x2="199.687" y2="3.70172" gradientUnits="userSpaceOnUse">
<stop offset="0.238306" stop-color="#D1D1D1"/>
<stop offset="0.416703" stop-color="#E3E3E3"/>
<stop offset="0.700226" stop-color="#D2D2D2"/>
<stop offset="0.926408" stop-color="#E6E6E6"/>
</linearGradient>
<linearGradient id="paint5_linear_1_471" x1="49.6993" y1="518.502" x2="49.6993" y2="524.563" gradientUnits="userSpaceOnUse">
<stop offset="0.0988321" stop-color="#E6E6E6"/>
<stop offset="0.368786" stop-color="#D2D2D2"/>
<stop offset="0.624532" stop-color="#E3E3E3"/>
<stop offset="0.798581" stop-color="#D1D1D1"/>
</linearGradient>
<linearGradient id="paint6_linear_1_471" x1="20.5485" y1="9.60052" x2="234.49" y2="507.14" gradientUnits="userSpaceOnUse">
<stop stop-color="white" stop-opacity="0.16"/>
<stop offset="1" stop-color="white" stop-opacity="0.05"/>
</linearGradient>
<linearGradient id="paint7_linear_1_471" x1="129.146" y1="0.136844" x2="129.146" y2="523.137" gradientUnits="userSpaceOnUse">
<stop stop-color="white" stop-opacity="0.64"/>
<stop offset="1" stop-color="white" stop-opacity="0.32"/>
</linearGradient>
<linearGradient id="paint8_linear_1_471" x1="0.356323" y1="47.3745" x2="6.41284" y2="47.3745" gradientUnits="userSpaceOnUse">
<stop offset="0.123628" stop-color="#8F8F8F"/>
<stop offset="0.365738" stop-color="#525252"/>
<stop offset="0.827659" stop-color="#141414"/>
</linearGradient>
<linearGradient id="paint9_linear_1_471" x1="0.356323" y1="478.395" x2="6.41284" y2="478.395" gradientUnits="userSpaceOnUse">
<stop offset="0.123628" stop-color="#8F8F8F"/>
<stop offset="0.365738" stop-color="#525252"/>
<stop offset="0.827659" stop-color="#141414"/>
</linearGradient>
<linearGradient id="paint10_linear_1_471" x1="251.88" y1="47.3745" x2="257.936" y2="47.3745" gradientUnits="userSpaceOnUse">
<stop offset="0.088176" stop-color="#141414"/>
<stop offset="0.536358" stop-color="#525252"/>
<stop offset="0.756584" stop-color="#8F8F8F"/>
</linearGradient>
<linearGradient id="paint11_linear_1_471" x1="251.88" y1="478.395" x2="257.936" y2="478.395" gradientUnits="userSpaceOnUse">
<stop offset="0.088176" stop-color="#141414"/>
<stop offset="0.529254" stop-color="#525252"/>
<stop offset="0.770792" stop-color="#8F8F8F"/>
</linearGradient>
<linearGradient id="paint12_linear_1_471" x1="199.687" y1="-2.35876" x2="199.687" y2="3.70172" gradientUnits="userSpaceOnUse">
<stop offset="0.420124" stop-color="#8F8F8F"/>
<stop offset="0.610413" stop-color="#525252"/>
<stop offset="0.976264" stop-color="#141414"/>
</linearGradient>
<linearGradient id="paint13_linear_1_471" x1="49.6993" y1="518.502" x2="49.6993" y2="524.563" gradientUnits="userSpaceOnUse">
<stop offset="0.122861"/>
<stop offset="0.584624" stop-color="#292929"/>
<stop offset="0.87589" stop-color="#7A7A7A"/>
</linearGradient>
<linearGradient id="paint14_linear_1_471" x1="20.5485" y1="9.60052" x2="234.49" y2="507.14" gradientUnits="userSpaceOnUse">
<stop stop-color="white" stop-opacity="0.16"/>
<stop offset="1" stop-color="white" stop-opacity="0.05"/>
</linearGradient>
<linearGradient id="paint15_linear_1_471" x1="45.8524" y1="133.226" x2="45.8524" y2="195.979" gradientUnits="userSpaceOnUse">
<stop stop-color="#FDD62B"/>
<stop offset="1" stop-color="white"/>
</linearGradient>
<linearGradient id="paint16_linear_1_471" x1="129.325" y1="17.2494" x2="129.325" y2="22.2406" gradientUnits="userSpaceOnUse">
<stop/>
<stop offset="0.483028" stop-color="#484848"/>
<stop offset="1"/>
</linearGradient>
<radialGradient id="paint17_radial_1_471" cx="0" cy="0" r="1" gradientUnits="userSpaceOnUse" gradientTransform="translate(154.797 22.0622) rotate(-127.675) scale(4.95473 4.95387)">
<stop stop-color="#242424"/>
<stop offset="1" stop-color="#161616"/>
</radialGradient>
<radialGradient id="paint18_radial_1_471" cx="0" cy="0" r="1" gradientUnits="userSpaceOnUse" gradientTransform="translate(153.906 19.7449) rotate(90) scale(4.99114 4.98772)">
<stop offset="0.463542" stop-opacity="0.25"/>
<stop offset="0.645833" stop-opacity="0"/>
</radialGradient>
<linearGradient id="paint19_linear_1_471" x1="153.906" y1="17.2494" x2="153.906" y2="22.2406" gradientUnits="userSpaceOnUse">
<stop stop-color="#0B528D"/>
<stop offset="0.276042" stop-color="#3625AF"/>
<stop offset="0.510417" stop-color="#070D17"/>
<stop offset="0.734375" stop-color="#16618F"/>
<stop offset="1" stop-color="#021762"/>
</linearGradient>
<radialGradient id="paint20_radial_1_471" cx="0" cy="0" r="1" gradientUnits="userSpaceOnUse" gradientTransform="translate(151.948 19.2102) rotate(58.41) scale(2.72043 2.71959)">
<stop stop-color="#070D17"/>
<stop offset="1" stop-color="#070D17" stop-opacity="0"/>
</radialGradient>
<radialGradient id="paint21_radial_1_471" cx="0" cy="0" r="1" gradientUnits="userSpaceOnUse" gradientTransform="translate(154.263 20.1015) rotate(106.688) scale(1.86093 1.85986)">
<stop offset="0.146834" stop-color="#070D17"/>
<stop offset="1" stop-color="#070D17" stop-opacity="0"/>
</radialGradient>
<radialGradient id="paint22_radial_1_471" cx="0" cy="0" r="1" gradientUnits="userSpaceOnUse" gradientTransform="translate(154.619 19.2102) rotate(128.641) scale(1.14108 1.14091)">
<stop stop-color="#6356D7"/>
<stop offset="1" stop-color="#15368A" stop-opacity="0"/>
</radialGradient>
<radialGradient id="paint23_radial_1_471" cx="0" cy="0" r="1" gradientUnits="userSpaceOnUse" gradientTransform="translate(153.906 19.7449) rotate(90) scale(2.49556 2.49385)">
<stop offset="0.828125" stop-opacity="0"/>
<stop offset="1" stop-opacity="0.85"/>
</radialGradient>
<clipPath id="clip0_1_471">
<rect width="259" height="523" fill="white" transform="translate(0 0.136841)"/>
</clipPath>
</defs>
</svg>
