<svg width="460" height="551" viewBox="0 0 460 551" fill="none" xmlns="http://www.w3.org/2000/svg">
<g clip-path="url(#clip0_1_378)">
<path d="M29.4987 170.591C19.685 153.593 14.7781 145.094 14.3444 136.688C13.963 129.294 15.9348 121.965 19.9772 115.751C24.5728 108.687 33.0889 103.77 50.1213 93.9366L161.885 29.4095C178.918 19.576 187.433 14.6595 195.849 14.2115C203.251 13.8175 210.584 15.7744 216.797 19.8016C223.86 24.3803 228.767 32.8793 238.581 49.8771L274.065 111.337L274.942 110.831C275.265 110.644 275.678 110.754 275.864 111.076L304.507 160.687C304.693 161.01 304.582 161.423 304.259 161.609L303.382 162.116L429.681 380.872C439.495 397.87 444.401 406.369 444.835 414.775C445.216 422.169 443.244 429.498 439.202 435.712C434.606 442.776 426.091 447.693 409.059 457.526L297.294 522.053C280.262 531.887 271.746 536.804 263.331 537.252C255.928 537.645 248.595 535.688 242.382 531.661C235.319 527.082 230.413 518.584 220.599 501.586L100.197 293.043L99.3193 293.55C98.9963 293.736 98.5835 293.626 98.3973 293.303L80.2009 261.786C80.0147 261.464 80.1256 261.051 80.4486 260.865L81.3258 260.358L77.1138 253.063L76.2365 253.569C75.9135 253.756 75.5007 253.645 75.3145 253.323L57.1176 221.805C56.9315 221.482 57.0427 221.07 57.3657 220.884L58.243 220.377L50.3238 206.661L49.4466 207.167C49.1235 207.354 48.7111 207.244 48.525 206.922L39.4264 191.163C39.2403 190.84 39.3513 190.428 39.6743 190.241L40.5515 189.735L29.4987 170.591Z" fill="#ADAFA4"/>
<g style="mix-blend-mode:multiply">
<mask id="mask0_1_378" style="mask-type:alpha" maskUnits="userSpaceOnUse" x="14" y="14" width="431" height="524">
<g style="mix-blend-mode:multiply">
<g style="mix-blend-mode:multiply">
<path d="M29.4987 170.591C19.685 153.593 14.7781 145.094 14.3445 136.688C13.9631 129.294 15.9349 121.965 19.9772 115.751C24.5728 108.687 33.089 103.77 50.1213 93.9367L161.885 29.4096C178.918 19.5761 187.433 14.6595 195.849 14.2115C203.251 13.8175 210.584 15.7744 216.797 19.8016C223.86 24.3803 228.767 32.8793 238.581 49.8771L429.681 380.873C439.495 397.87 444.401 406.369 444.835 414.775C445.216 422.169 443.245 429.498 439.202 435.712C434.607 442.776 426.091 447.693 409.059 457.526L297.295 522.053C280.262 531.887 271.746 536.804 263.331 537.252C255.928 537.645 248.595 535.688 242.382 531.661C235.319 527.082 230.413 518.584 220.599 501.586L29.4987 170.591Z" fill="black"/>
</g>
</g>
</mask>
<g mask="url(#mask0_1_378)">
<g style="mix-blend-mode:multiply">
<g style="mix-blend-mode:multiply" filter="url(#filter0_i_1_378)">
<g style="mix-blend-mode:multiply">
<path d="M29.4987 170.591C19.685 153.593 14.7781 145.094 14.3445 136.688C13.9631 129.294 15.9349 121.965 19.9772 115.751C24.5728 108.687 33.089 103.77 50.1213 93.9367L161.885 29.4096C178.918 19.5761 187.433 14.6595 195.849 14.2115C203.251 13.8175 210.584 15.7744 216.797 19.8016C223.86 24.3803 228.767 32.8793 238.581 49.8771L429.681 380.873C439.495 397.87 444.401 406.369 444.835 414.775C445.216 422.169 443.245 429.498 439.202 435.712C434.607 442.776 426.091 447.693 409.059 457.526L297.295 522.053C280.262 531.887 271.746 536.804 263.331 537.252C255.928 537.645 248.595 535.688 242.382 531.661C235.319 527.082 230.413 518.584 220.599 501.586L29.4987 170.591Z" fill="#EBEBEB"/>
</g>
</g>
<path style="mix-blend-mode:multiply" d="M26.3248 156.314L21.3536 159.184L23.7125 163.27L28.6837 160.4L26.3248 156.314Z" fill="url(#paint0_linear_1_378)"/>
<path style="mix-blend-mode:multiply" d="M230.028 509.138L225.057 512.009L227.416 516.094L232.387 513.224L230.028 509.138Z" fill="url(#paint1_linear_1_378)"/>
<path style="mix-blend-mode:multiply" d="M232.775 37.12L227.804 39.9901L230.163 44.0758L235.134 41.2056L232.775 37.12Z" fill="url(#paint2_linear_1_378)"/>
<path style="mix-blend-mode:multiply" d="M436.478 389.944L431.507 392.814L433.866 396.9L438.837 394.03L436.478 389.944Z" fill="url(#paint3_linear_1_378)"/>
<path style="mix-blend-mode:multiply" d="M167.781 29.8968L164.917 24.9357L160.823 27.2993L163.687 32.2604L167.781 29.8968Z" fill="url(#paint4_linear_1_378)"/>
<path style="mix-blend-mode:multiply" d="M290.833 527.34L287.969 522.379L283.875 524.743L286.739 529.704L290.833 527.34Z" fill="url(#paint5_linear_1_378)"/>
</g>
<g style="mix-blend-mode:multiply">
<path d="M50.6433 97.0018L164.279 31.3942C172.225 26.8067 178.173 23.3725 183.116 21.032C188.056 18.6928 191.974 17.4549 195.858 17.2484C202.716 16.8831 209.51 18.696 215.265 22.4271C218.525 24.5406 221.297 27.5636 224.4 32.05C227.506 36.5378 230.934 42.4738 235.512 50.4039L427.691 383.267C432.269 391.197 435.696 397.133 438.03 402.067C440.363 406.998 441.595 410.91 441.796 414.789C442.149 421.639 440.322 428.43 436.577 434.186C434.456 437.446 431.425 440.221 426.929 443.329C422.431 446.439 416.483 449.874 408.537 454.461L294.901 520.069C286.955 524.657 281.007 528.091 276.065 530.431C271.124 532.77 267.206 534.008 263.322 534.215C256.464 534.58 249.671 532.767 243.915 529.036C240.655 526.923 237.883 523.9 234.779 519.414C231.674 514.925 228.246 508.989 223.668 501.059L31.4895 168.196C26.9111 160.266 23.4841 154.33 21.15 149.397C18.817 144.466 17.5845 140.553 17.3844 136.674C17.0311 129.824 18.8577 123.034 22.6028 117.277C24.7237 114.017 27.755 111.243 32.251 108.134C36.7492 105.024 42.6973 101.589 50.6433 97.0018Z" fill="black"/>
<path d="M50.6433 97.0018L164.279 31.3942C172.225 26.8067 178.173 23.3725 183.116 21.032C188.056 18.6928 191.974 17.4549 195.858 17.2484C202.716 16.8831 209.51 18.696 215.265 22.4271C218.525 24.5406 221.297 27.5636 224.4 32.05C227.506 36.5378 230.934 42.4738 235.512 50.4039L427.691 383.267C432.269 391.197 435.696 397.133 438.03 402.067C440.363 406.998 441.595 410.91 441.796 414.789C442.149 421.639 440.322 428.43 436.577 434.186C434.456 437.446 431.425 440.221 426.929 443.329C422.431 446.439 416.483 449.874 408.537 454.461L294.901 520.069C286.955 524.657 281.007 528.091 276.065 530.431C271.124 532.77 267.206 534.008 263.322 534.215C256.464 534.58 249.671 532.767 243.915 529.036C240.655 526.923 237.883 523.9 234.779 519.414C231.674 514.925 228.246 508.989 223.668 501.059L31.4895 168.196C26.9111 160.266 23.4841 154.33 21.15 149.397C18.817 144.466 17.5845 140.553 17.3844 136.674C17.0311 129.824 18.8577 123.034 22.6028 117.277C24.7237 114.017 27.755 111.243 32.251 108.134C36.7492 105.024 42.6973 101.589 50.6433 97.0018Z" stroke="url(#paint6_linear_1_378)" stroke-width="0.5" style="mix-blend-mode:multiply"/>
</g>
<g style="mix-blend-mode:multiply" filter="url(#filter1_ii_1_378)">
<path style="mix-blend-mode:multiply" d="M39.4265 191.163C39.2404 190.84 39.3513 190.428 39.6743 190.241L40.5516 189.735L50.3239 206.661L49.4466 207.167C49.1236 207.354 48.7112 207.244 48.525 206.922L39.4265 191.163Z" fill="url(#paint7_linear_1_378)"/>
</g>
<g style="mix-blend-mode:multiply" filter="url(#filter2_ii_1_378)">
<path style="mix-blend-mode:multiply" d="M57.1177 221.805C56.9316 221.482 57.0428 221.07 57.3659 220.884L58.2431 220.377L77.1139 253.063L76.2366 253.569C75.9136 253.756 75.5008 253.645 75.3146 253.323L57.1177 221.805Z" fill="url(#paint8_linear_1_378)"/>
</g>
<g style="mix-blend-mode:multiply" filter="url(#filter3_ii_1_378)">
<path style="mix-blend-mode:multiply" d="M274.065 111.337L274.942 110.831C275.265 110.644 275.678 110.754 275.864 111.076L304.507 160.687C304.693 161.01 304.582 161.423 304.259 161.609L303.382 162.116L274.065 111.337Z" fill="url(#paint9_linear_1_378)"/>
</g>
<g style="mix-blend-mode:multiply" filter="url(#filter4_ii_1_378)">
<path style="mix-blend-mode:multiply" d="M80.2005 261.785C80.0148 261.464 80.1256 261.051 80.4486 260.864L81.3259 260.358L100.197 293.043L99.3194 293.55C98.9964 293.736 98.5835 293.626 98.3974 293.303L80.2005 261.785Z" fill="url(#paint10_linear_1_378)"/>
</g>
</g>
</g>
<g style="mix-blend-mode:screen">
<mask id="mask1_1_378" style="mask-type:alpha" maskUnits="userSpaceOnUse" x="14" y="14" width="431" height="524">
<g style="mix-blend-mode:screen">
<g style="mix-blend-mode:screen">
<path d="M29.4987 170.591C19.685 153.593 14.7781 145.094 14.3445 136.688C13.9631 129.294 15.9349 121.965 19.9772 115.751C24.5728 108.687 33.089 103.77 50.1213 93.9367L161.885 29.4096C178.918 19.5761 187.433 14.6595 195.849 14.2115C203.251 13.8175 210.584 15.7744 216.797 19.8016C223.86 24.3803 228.767 32.8793 238.581 49.8771L429.681 380.873C439.495 397.87 444.401 406.369 444.835 414.775C445.216 422.169 443.245 429.498 439.202 435.712C434.607 442.776 426.091 447.693 409.059 457.526L297.295 522.053C280.262 531.887 271.746 536.804 263.331 537.252C255.928 537.645 248.595 535.688 242.382 531.661C235.319 527.082 230.413 518.584 220.599 501.586L29.4987 170.591Z" fill="black"/>
</g>
</g>
</mask>
<g mask="url(#mask1_1_378)">
<g style="mix-blend-mode:screen">
<g style="mix-blend-mode:screen" filter="url(#filter5_ii_1_378)">
<g style="mix-blend-mode:screen">
<path d="M29.4987 170.591C19.685 153.593 14.7781 145.094 14.3445 136.688C13.9631 129.294 15.9349 121.965 19.9772 115.751C24.5728 108.687 33.089 103.77 50.1213 93.9367L161.885 29.4096C178.918 19.5761 187.433 14.6595 195.849 14.2115C203.251 13.8175 210.584 15.7744 216.797 19.8016C223.86 24.3803 228.767 32.8793 238.581 49.8771L429.681 380.873C439.495 397.87 444.401 406.369 444.835 414.775C445.216 422.169 443.245 429.498 439.202 435.712C434.607 442.776 426.091 447.693 409.059 457.526L297.295 522.053C280.262 531.887 271.746 536.804 263.331 537.252C255.928 537.645 248.595 535.688 242.382 531.661C235.319 527.082 230.413 518.584 220.599 501.586L29.4987 170.591Z" fill="#050505"/>
</g>
</g>
<path style="mix-blend-mode:screen" d="M50.5604 94.6971L162.325 30.1701C170.853 25.2461 177.204 21.5804 182.474 19.0847C187.735 16.5935 191.849 15.304 195.894 15.0889C203.111 14.7047 210.26 16.6125 216.318 20.5389C219.713 22.7402 222.629 25.9056 225.934 30.6825C229.245 35.4682 232.905 41.8056 237.819 50.3171L428.919 381.312C433.833 389.824 437.491 396.162 439.981 401.422C442.465 406.673 443.748 410.781 443.957 414.821C444.329 422.031 442.406 429.176 438.465 435.234C436.256 438.63 433.083 441.548 428.295 444.859C423.498 448.175 417.148 451.842 408.62 456.766L296.855 521.293C288.327 526.217 281.976 529.883 276.706 532.379C271.445 534.869 267.331 536.159 263.286 536.374C256.069 536.758 248.919 534.85 242.862 530.924C239.467 528.723 236.551 525.557 233.246 520.781C229.934 515.995 226.275 509.658 221.361 501.146L30.2607 170.151C25.3466 161.639 21.6881 155.301 19.1993 150.041C16.715 144.79 15.4313 140.682 15.2228 136.641C14.8509 129.432 16.7733 122.287 20.7144 116.229C22.9236 112.833 26.0976 109.915 30.8852 106.605C35.6813 103.288 42.0317 99.6212 50.5604 94.6971Z" stroke="url(#paint11_linear_1_378)" stroke-width="2"/>
<path style="mix-blend-mode:screen" d="M26.3248 156.314L21.3536 159.184L23.7125 163.27L28.6837 160.4L26.3248 156.314Z" fill="url(#paint12_linear_1_378)"/>
<path style="mix-blend-mode:screen" d="M230.028 509.138L225.057 512.009L227.416 516.094L232.387 513.224L230.028 509.138Z" fill="url(#paint13_linear_1_378)"/>
<path style="mix-blend-mode:screen" d="M232.775 37.12L227.804 39.9901L230.163 44.0758L235.134 41.2056L232.775 37.12Z" fill="url(#paint14_linear_1_378)"/>
<path style="mix-blend-mode:screen" d="M436.478 389.944L431.507 392.814L433.866 396.9L438.837 394.03L436.478 389.944Z" fill="url(#paint15_linear_1_378)"/>
<path style="mix-blend-mode:screen" d="M167.781 29.8968L164.917 24.9357L160.823 27.2993L163.687 32.2604L167.781 29.8968Z" fill="url(#paint16_linear_1_378)"/>
<path style="mix-blend-mode:screen" d="M290.833 527.34L287.969 522.379L283.875 524.743L286.739 529.704L290.833 527.34Z" fill="url(#paint17_linear_1_378)"/>
</g>
<g style="mix-blend-mode:screen">
<path d="M50.6433 97.0018L164.279 31.3942C172.225 26.8067 178.173 23.3725 183.116 21.032C188.056 18.6928 191.974 17.4549 195.858 17.2484C202.716 16.8831 209.51 18.696 215.265 22.4271C218.525 24.5406 221.297 27.5636 224.4 32.05C227.506 36.5378 230.934 42.4738 235.512 50.4039L427.691 383.267C432.269 391.197 435.696 397.133 438.03 402.067C440.363 406.998 441.595 410.91 441.796 414.789C442.149 421.639 440.322 428.43 436.577 434.186C434.456 437.446 431.425 440.221 426.929 443.329C422.431 446.439 416.483 449.874 408.537 454.461L294.901 520.069C286.955 524.657 281.007 528.091 276.065 530.431C271.124 532.77 267.206 534.008 263.322 534.215C256.464 534.58 249.671 532.767 243.915 529.036C240.655 526.923 237.883 523.9 234.779 519.414C231.674 514.925 228.246 508.989 223.668 501.059L31.4895 168.196C26.9111 160.266 23.4841 154.33 21.15 149.397C18.817 144.466 17.5845 140.553 17.3844 136.674C17.0311 129.824 18.8577 123.034 22.6028 117.277C24.7237 114.017 27.755 111.243 32.251 108.134C36.7492 105.024 42.6973 101.589 50.6433 97.0018Z" fill="black"/>
<path d="M50.6433 97.0018L164.279 31.3942C172.225 26.8067 178.173 23.3725 183.116 21.032C188.056 18.6928 191.974 17.4549 195.858 17.2484C202.716 16.8831 209.51 18.696 215.265 22.4271C218.525 24.5406 221.297 27.5636 224.4 32.05C227.506 36.5378 230.934 42.4738 235.512 50.4039L427.691 383.267C432.269 391.197 435.696 397.133 438.03 402.067C440.363 406.998 441.595 410.91 441.796 414.789C442.149 421.639 440.322 428.43 436.577 434.186C434.456 437.446 431.425 440.221 426.929 443.329C422.431 446.439 416.483 449.874 408.537 454.461L294.901 520.069C286.955 524.657 281.007 528.091 276.065 530.431C271.124 532.77 267.206 534.008 263.322 534.215C256.464 534.58 249.671 532.767 243.915 529.036C240.655 526.923 237.883 523.9 234.779 519.414C231.674 514.925 228.246 508.989 223.668 501.059L31.4895 168.196C26.9111 160.266 23.4841 154.33 21.15 149.397C18.817 144.466 17.5845 140.553 17.3844 136.674C17.0311 129.824 18.8577 123.034 22.6028 117.277C24.7237 114.017 27.755 111.243 32.251 108.134C36.7492 105.024 42.6973 101.589 50.6433 97.0018Z" stroke="url(#paint18_linear_1_378)" stroke-width="0.5" style="mix-blend-mode:screen"/>
</g>
<g style="mix-blend-mode:screen">
<path d="M26.1857 136.211C26.4692 141.707 29.6775 147.264 36.0942 158.378L234.473 501.98C240.89 513.094 244.098 518.652 248.716 521.645C252.778 524.278 257.573 525.558 262.413 525.3C267.915 525.007 273.484 521.792 284.62 515.363L409.602 443.205C420.738 436.775 426.306 433.56 429.311 428.942C431.954 424.879 433.243 420.087 432.994 415.252C432.711 409.756 429.502 404.199 423.086 393.085L224.707 49.4825C218.29 38.3685 215.082 32.8115 210.463 29.8181C206.401 27.1848 201.606 25.9052 196.767 26.1626C191.264 26.4557 185.696 29.6702 174.56 36.1001L164.786 41.7429C164.302 42.0222 164.06 42.1621 163.907 42.3443C163.65 42.6497 163.542 43.0529 163.611 43.4454C163.652 43.6797 163.791 43.9212 164.07 44.4043C166.301 48.2691 167.417 50.2015 167.746 52.0748C168.298 55.2146 167.43 58.4401 165.375 60.8852C164.151 62.3432 162.214 63.4615 158.342 65.6971L83.319 109.011C79.4464 111.247 77.5101 112.365 75.6344 112.697C72.4901 113.254 69.2629 112.392 66.8192 110.345C65.3616 109.123 64.2459 107.191 62.0146 103.326C61.7357 102.843 61.5962 102.601 61.414 102.449C61.1086 102.193 60.7051 102.085 60.3121 102.155C60.0777 102.196 59.8356 102.336 59.3515 102.615L49.5781 108.258C38.4417 114.688 32.8734 117.903 29.8686 122.521C27.2254 126.584 25.9362 131.376 26.1857 136.211Z" fill="black"/>
</g>
<g style="mix-blend-mode:screen" filter="url(#filter6_iiii_1_378)">
<path style="mix-blend-mode:screen" d="M39.4265 191.163C39.2404 190.84 39.3513 190.428 39.6743 190.241L40.5516 189.735L50.3239 206.661L49.4466 207.167C49.1236 207.354 48.7112 207.244 48.525 206.922L39.4265 191.163Z" fill="url(#paint19_linear_1_378)"/>
</g>
<g style="mix-blend-mode:screen" filter="url(#filter7_iiii_1_378)">
<path style="mix-blend-mode:screen" d="M57.1177 221.805C56.9316 221.482 57.0428 221.07 57.3659 220.884L58.2431 220.377L77.1139 253.063L76.2366 253.569C75.9136 253.756 75.5008 253.645 75.3146 253.323L57.1177 221.805Z" fill="url(#paint20_linear_1_378)"/>
</g>
<g style="mix-blend-mode:screen" filter="url(#filter8_iiii_1_378)">
<path style="mix-blend-mode:screen" d="M274.065 111.337L274.942 110.831C275.265 110.644 275.678 110.754 275.864 111.076L304.507 160.687C304.693 161.01 304.582 161.423 304.259 161.609L303.382 162.116L274.065 111.337Z" fill="url(#paint21_linear_1_378)"/>
</g>
<g style="mix-blend-mode:screen" filter="url(#filter9_iiii_1_378)">
<path style="mix-blend-mode:screen" d="M80.2005 261.785C80.0148 261.464 80.1256 261.051 80.4486 260.864L81.3259 260.358L100.197 293.043L99.3194 293.55C98.9964 293.736 98.5835 293.626 98.3974 293.303L80.2005 261.785Z" fill="url(#paint22_linear_1_378)"/>
</g>
</g>
</g>
<mask id="mask2_1_378" style="mask-type:alpha" maskUnits="userSpaceOnUse" x="26" y="26" width="408" height="500">
<path d="M26.1855 136.211C26.4691 141.707 29.6774 147.264 36.0941 158.378L234.473 501.98C240.89 513.095 244.098 518.652 248.716 521.645C252.778 524.278 257.573 525.558 262.413 525.301C267.915 525.007 273.484 521.793 284.62 515.363L409.601 443.205C420.738 436.775 426.306 433.56 429.311 428.942C431.954 424.879 433.243 420.087 432.994 415.252C432.711 409.756 429.502 404.199 423.085 393.085L224.707 49.4825C218.29 38.3685 215.082 32.8115 210.463 29.8181C206.401 27.1848 201.606 25.9052 196.767 26.1626C191.264 26.4557 185.696 29.6702 174.559 36.1L164.786 41.7429C164.302 42.0222 164.06 42.1621 163.907 42.3443C163.65 42.6497 163.542 43.0529 163.611 43.4454C163.652 43.6797 163.791 43.9212 164.07 44.4043C166.301 48.2691 167.417 50.2015 167.746 52.0748C168.298 55.2146 167.43 58.4401 165.375 60.8852C164.151 62.3432 162.214 63.4615 158.342 65.6971L83.3189 109.011C79.4463 111.247 77.51 112.365 75.6343 112.697C72.49 113.254 69.2628 112.392 66.8191 110.345C65.3615 109.123 64.2458 107.191 62.0145 103.326C61.7356 102.843 61.5961 102.601 61.4139 102.449C61.1084 102.193 60.705 102.085 60.312 102.155C60.0776 102.196 59.8355 102.336 59.3514 102.615L49.578 108.258C38.4415 114.688 32.8733 117.903 29.8685 122.521C27.2253 126.584 25.9361 131.376 26.1855 136.211Z" fill="#161616"/>
</mask>
<g mask="url(#mask2_1_378)">
<path d="M206.658 17.7546L18.3378 126.481L253.38 533.586L441.7 424.859L206.658 17.7546Z" fill="white"/>
<g filter="url(#filter10_d_1_378)">
<path d="M244.726 159.656L93.0957 247.199C89.7291 249.143 88.5725 253.442 90.5122 256.802L154.281 367.253C156.221 370.613 160.523 371.761 163.889 369.817L315.519 282.273C318.886 280.33 320.042 276.03 318.103 272.671L254.334 162.22C252.394 158.86 248.092 157.712 244.726 159.656Z" fill="white"/>
</g>
<path d="M155.779 237.168L119.509 258.108C118.668 258.594 118.379 259.669 118.864 260.509L119.939 262.372C120.424 263.212 121.499 263.499 122.341 263.013L158.61 242.073C159.452 241.587 159.741 240.512 159.256 239.672L158.181 237.809C157.696 236.969 156.62 236.682 155.779 237.168Z" fill="#B3BAC5"/>
<path opacity="0.1" d="M188.375 236.877L127.533 272.005C126.691 272.491 126.402 273.565 126.887 274.405L127.962 276.268C128.447 277.108 129.523 277.395 130.364 276.909L191.207 241.782C192.049 241.296 192.338 240.221 191.853 239.381L190.777 237.518C190.292 236.678 189.217 236.391 188.375 236.877Z" fill="#5A7184"/>
<path d="M158.511 328.235C158.511 328.235 164.912 314.73 170.236 311.656C175.561 308.582 182.203 313.466 189.811 309.619C197.419 305.771 200.863 285.254 210.693 279.579C220.522 273.904 229.684 278.424 244.192 269.503C258.7 260.581 250.615 245.631 261.263 239.483C270.525 234.135 263.576 222.893 269.694 215.387" stroke="#005490" stroke-width="4" stroke-linecap="round"/>
<path d="M376.706 356.545L225.838 443.649C222.471 445.593 221.314 449.892 223.254 453.252L273.751 540.715C275.691 544.075 279.992 545.223 283.359 543.279L434.227 456.176C437.594 454.232 438.75 449.933 436.811 446.573L386.314 359.109C384.374 355.75 380.072 354.602 376.706 356.545Z" fill="white"/>
<path d="M329.171 409.672L280.306 437.884C279.464 438.37 279.175 439.445 279.66 440.284L280.205 441.228C280.69 442.068 281.765 442.355 282.607 441.869L331.472 413.657C332.313 413.171 332.602 412.096 332.118 411.256L331.573 410.313C331.088 409.473 330.012 409.186 329.171 409.672Z" fill="#D5D9E0"/>
<path d="M316.107 433.155L287.209 449.84C286.367 450.326 286.078 451.401 286.563 452.241L287.108 453.184C287.592 454.024 288.668 454.311 289.51 453.825L318.408 437.141C319.25 436.655 319.539 435.58 319.054 434.74L318.509 433.796C318.024 432.956 316.949 432.669 316.107 433.155Z" fill="#D5D9E0"/>
<path opacity="0.1" d="M379.876 388.367L364.289 397.366C363.447 397.852 363.158 398.927 363.643 399.767L364.188 400.711C364.673 401.551 365.748 401.838 366.59 401.352L382.177 392.352C383.019 391.866 383.308 390.792 382.823 389.952L382.278 389.008C381.793 388.168 380.718 387.881 379.876 388.367Z" fill="#5A7184"/>
<path fill-rule="evenodd" clip-rule="evenodd" d="M269.271 469.938C275.52 466.33 277.667 458.35 274.066 452.114C270.466 445.878 262.481 443.747 256.233 447.355C249.984 450.962 247.837 458.942 251.437 465.179C255.038 471.415 263.022 473.545 269.271 469.938Z" fill="#005490"/>
<path d="M351.412 448.195L302.547 476.407C301.706 476.893 301.417 477.968 301.902 478.808L302.446 479.752C302.931 480.592 304.007 480.879 304.848 480.393L353.713 452.18C354.555 451.694 354.844 450.62 354.359 449.78L353.814 448.836C353.33 447.996 352.254 447.709 351.412 448.195Z" fill="#D5D9E0"/>
<path d="M338.349 471.679L309.45 488.363C308.609 488.849 308.32 489.924 308.804 490.764L309.349 491.708C309.834 492.548 310.91 492.835 311.751 492.349L340.65 475.664C341.491 475.178 341.781 474.103 341.296 473.263L340.751 472.32C340.266 471.48 339.19 471.193 338.349 471.679Z" fill="#D5D9E0"/>
<path opacity="0.1" d="M402.118 426.891L386.531 435.891C385.689 436.377 385.4 437.452 385.885 438.291L386.43 439.235C386.915 440.075 387.99 440.362 388.832 439.876L404.419 430.876C405.261 430.391 405.55 429.316 405.065 428.476L404.52 427.532C404.035 426.692 402.96 426.405 402.118 426.891Z" fill="#5A7184"/>
<path fill-rule="evenodd" clip-rule="evenodd" d="M291.513 508.461C297.761 504.854 299.908 496.874 296.308 490.638C292.707 484.401 284.723 482.271 278.474 485.878C272.226 489.486 270.079 497.466 273.679 503.702C277.28 509.938 285.264 512.069 291.513 508.461Z" fill="#005490"/>
<g filter="url(#filter11_i_1_378)">
<path d="M104.012 84.2238C103.361 83.0956 103.749 81.6522 104.879 80.9994L123.595 70.1941C124.725 69.5417 126.169 69.9271 126.821 71.0553C127.472 72.1835 127.084 73.6274 125.954 74.2798L107.238 85.0851C106.107 85.7379 104.664 85.3521 104.012 84.2238Z" fill="#161616"/>
</g>
<g filter="url(#filter12_f_1_378)">
<path d="M105.318 81.7598L124.034 70.9545C124.743 70.5449 125.65 70.7869 126.059 71.4952C126.468 72.2034 126.224 73.1098 125.515 73.5193L106.799 84.3246C106.09 84.7342 105.183 84.4921 104.774 83.7838C104.365 83.0756 104.609 82.1693 105.318 81.7598Z" stroke="black" stroke-opacity="0.32" stroke-width="2"/>
</g>
<path d="M105.099 81.3795L123.814 70.5743C124.734 70.0433 125.91 70.357 126.44 71.2752C126.97 72.1935 126.654 73.3685 125.734 73.8995L107.019 84.7048C106.098 85.2362 104.923 84.9221 104.393 84.0038C103.863 83.0856 104.178 81.9109 105.099 81.3795Z" stroke="url(#paint23_linear_1_378)"/>
<path d="M131.499 68.354C130.196 66.0976 130.974 63.21 133.234 61.9047C135.496 60.5991 138.384 61.3703 139.687 63.6266C140.99 65.8831 140.213 68.7703 137.952 70.076C135.691 71.3812 132.802 70.6105 131.499 68.354Z" fill="url(#paint24_radial_1_378)"/>
<path d="M131.499 68.354C130.196 66.0976 130.974 63.21 133.234 61.9047C135.496 60.5991 138.384 61.3703 139.687 63.6266C140.99 65.8831 140.213 68.7703 137.952 70.076C135.691 71.3812 132.802 70.6105 131.499 68.354Z" fill="url(#paint25_radial_1_378)"/>
<path d="M137.641 64.8084C136.989 63.6801 135.545 63.2948 134.414 63.9476C133.284 64.6 132.895 66.0438 133.547 67.1721C134.198 68.3003 135.643 68.6857 136.773 68.0333C137.903 67.3805 138.292 65.9366 137.641 64.8084Z" fill="url(#paint26_linear_1_378)"/>
<path d="M137.641 64.8084C136.989 63.6801 135.545 63.2948 134.414 63.9476C133.284 64.6 132.895 66.0438 133.547 67.1721C134.198 68.3003 135.643 68.6857 136.773 68.0333C137.903 67.3805 138.292 65.9366 137.641 64.8084Z" fill="url(#paint27_radial_1_378)"/>
<path d="M137.641 64.8084C136.989 63.6801 135.545 63.2948 134.414 63.9476C133.284 64.6 132.895 66.0438 133.547 67.1721C134.198 68.3003 135.643 68.6857 136.773 68.0333C137.903 67.3805 138.292 65.9366 137.641 64.8084Z" fill="url(#paint28_radial_1_378)"/>
<path d="M137.641 64.8084C136.989 63.6801 135.545 63.2948 134.414 63.9476C133.284 64.6 132.895 66.0438 133.547 67.1721C134.198 68.3003 135.643 68.6857 136.773 68.0333C137.903 67.3805 138.292 65.9366 137.641 64.8084Z" fill="url(#paint29_radial_1_378)"/>
<path d="M137.641 64.8084C136.989 63.6801 135.545 63.2948 134.414 63.9476C133.284 64.6 132.895 66.0438 133.547 67.1721C134.198 68.3003 135.643 68.6857 136.773 68.0333C137.903 67.3805 138.292 65.9366 137.641 64.8084Z" fill="url(#paint30_radial_1_378)"/>
<rect x="45" y="173.949" width="213.625" height="84.3255" rx="8" transform="rotate(-30 45 173.949)" fill="white"/>
<rect x="63.4304" y="178.887" width="26.9841" height="3.37302" rx="1.68651" transform="rotate(-30 63.4304 178.887)" fill="#B3BAC5"/>
<rect opacity="0.1" x="206.565" y="96.248" width="21.3625" height="3.37302" rx="1.68651" transform="rotate(-30 206.565 96.248)" fill="#5A7184"/>
<path d="M75.3766 199.578L236.282 106.679" stroke="#EEF0F2" stroke-dasharray="4 4"/>
<path d="M86.62 219.052L247.526 126.153" stroke="#EEF0F2" stroke-dasharray="4 4"/>
<path d="M97.8634 238.527L258.769 145.628" stroke="#EEF0F2" stroke-dasharray="4 4"/>
<path d="M97.8634 238.527L101.469 210.479L116.83 191.549L133.172 165.886L154.709 163.838L181.694 156.047L200.96 137.134L229.459 148.269L242.604 140.68L248.255 125.732" stroke="#36B37E" stroke-width="4" stroke-linecap="round"/>
<path d="M105.012 206.811C105.978 208.484 105.405 210.623 103.732 211.588C102.059 212.554 99.9204 211.981 98.9547 210.308C97.9889 208.635 98.562 206.496 100.235 205.531C101.908 204.565 104.047 205.138 105.012 206.811Z" fill="#36B37E" stroke="white" stroke-width="2"/>
<path d="M136.687 163.856C137.653 165.529 137.08 167.668 135.407 168.633C133.734 169.599 131.595 169.026 130.63 167.353C129.664 165.681 130.237 163.542 131.91 162.576C133.583 161.61 135.722 162.183 136.687 163.856Z" fill="#36B37E" stroke="white" stroke-width="2"/>
<path d="M184.199 153.952C185.164 155.625 184.591 157.764 182.918 158.73C181.246 159.695 179.107 159.122 178.141 157.449C177.175 155.777 177.748 153.638 179.421 152.672C181.094 151.706 183.233 152.279 184.199 153.952Z" fill="#36B37E" stroke="white" stroke-width="2"/>
<path d="M203.502 135.667C204.468 137.34 203.895 139.478 202.222 140.444C200.549 141.41 198.41 140.837 197.444 139.164C196.479 137.491 197.052 135.352 198.724 134.387C200.397 133.421 202.536 133.994 203.502 135.667Z" fill="#36B37E" stroke="white" stroke-width="2"/>
<path d="M232.834 145.995C233.8 147.668 233.227 149.807 231.554 150.773C229.881 151.739 227.742 151.166 226.777 149.493C225.811 147.82 226.384 145.681 228.057 144.715C229.729 143.75 231.868 144.323 232.834 145.995Z" fill="#36B37E" stroke="white" stroke-width="2"/>
<path d="M245.492 138.687C246.458 140.36 245.885 142.499 244.212 143.465C242.539 144.431 240.401 143.858 239.435 142.185C238.469 140.512 239.042 138.373 240.715 137.407C242.388 136.441 244.527 137.015 245.492 138.687Z" fill="#36B37E" stroke="white" stroke-width="2"/>
<path d="M251.555 122.204C252.521 123.877 251.948 126.016 250.275 126.982C248.602 127.947 246.463 127.374 245.498 125.702C244.532 124.029 245.105 121.89 246.778 120.924C248.45 119.958 250.589 120.531 251.555 122.204Z" fill="#36B37E" stroke="white" stroke-width="2"/>
</g>
</g>
<defs>
<filter id="filter0_i_1_378" x="14.298" y="14.1619" width="430.584" height="523.139" filterUnits="userSpaceOnUse" color-interpolation-filters="sRGB">
<feFlood flood-opacity="0" result="BackgroundImageFix"/>
<feBlend mode="normal" in="SourceGraphic" in2="BackgroundImageFix" result="shape"/>
<feColorMatrix in="SourceAlpha" type="matrix" values="0 0 0 0 0 0 0 0 0 0 0 0 0 0 0 0 0 0 127 0" result="hardAlpha"/>
<feOffset/>
<feGaussianBlur stdDeviation="8"/>
<feComposite in2="hardAlpha" operator="arithmetic" k2="-1" k3="1"/>
<feColorMatrix type="matrix" values="0 0 0 0 0 0 0 0 0 0 0 0 0 0 0 0 0 0 0.32 0"/>
<feBlend mode="normal" in2="shape" result="effect1_innerShadow_1_378"/>
</filter>
<filter id="filter1_ii_1_378" x="39.3362" y="187.735" width="10.9877" height="21.5234" filterUnits="userSpaceOnUse" color-interpolation-filters="sRGB">
<feFlood flood-opacity="0" result="BackgroundImageFix"/>
<feBlend mode="normal" in="SourceGraphic" in2="BackgroundImageFix" result="shape"/>
<feColorMatrix in="SourceAlpha" type="matrix" values="0 0 0 0 0 0 0 0 0 0 0 0 0 0 0 0 0 0 127 0" result="hardAlpha"/>
<feOffset dy="4"/>
<feGaussianBlur stdDeviation="1"/>
<feComposite in2="hardAlpha" operator="arithmetic" k2="-1" k3="1"/>
<feColorMatrix type="matrix" values="0 0 0 0 1 0 0 0 0 1 0 0 0 0 1 0 0 0 0.64 0"/>
<feBlend mode="normal" in2="shape" result="effect1_innerShadow_1_378"/>
<feColorMatrix in="SourceAlpha" type="matrix" values="0 0 0 0 0 0 0 0 0 0 0 0 0 0 0 0 0 0 127 0" result="hardAlpha"/>
<feOffset dy="-4"/>
<feGaussianBlur stdDeviation="1"/>
<feComposite in2="hardAlpha" operator="arithmetic" k2="-1" k3="1"/>
<feColorMatrix type="matrix" values="0 0 0 0 1 0 0 0 0 1 0 0 0 0 1 0 0 0 0.64 0"/>
<feBlend mode="normal" in2="effect1_innerShadow_1_378" result="effect2_innerShadow_1_378"/>
</filter>
<filter id="filter2_ii_1_378" x="57.0276" y="218.377" width="20.0863" height="37.2822" filterUnits="userSpaceOnUse" color-interpolation-filters="sRGB">
<feFlood flood-opacity="0" result="BackgroundImageFix"/>
<feBlend mode="normal" in="SourceGraphic" in2="BackgroundImageFix" result="shape"/>
<feColorMatrix in="SourceAlpha" type="matrix" values="0 0 0 0 0 0 0 0 0 0 0 0 0 0 0 0 0 0 127 0" result="hardAlpha"/>
<feOffset dy="4"/>
<feGaussianBlur stdDeviation="1"/>
<feComposite in2="hardAlpha" operator="arithmetic" k2="-1" k3="1"/>
<feColorMatrix type="matrix" values="0 0 0 0 1 0 0 0 0 1 0 0 0 0 1 0 0 0 0.64 0"/>
<feBlend mode="normal" in2="shape" result="effect1_innerShadow_1_378"/>
<feColorMatrix in="SourceAlpha" type="matrix" values="0 0 0 0 0 0 0 0 0 0 0 0 0 0 0 0 0 0 127 0" result="hardAlpha"/>
<feOffset dy="-4"/>
<feGaussianBlur stdDeviation="1"/>
<feComposite in2="hardAlpha" operator="arithmetic" k2="-1" k3="1"/>
<feColorMatrix type="matrix" values="0 0 0 0 1 0 0 0 0 1 0 0 0 0 1 0 0 0 0.64 0"/>
<feBlend mode="normal" in2="effect1_innerShadow_1_378" result="effect2_innerShadow_1_378"/>
</filter>
<filter id="filter3_ii_1_378" x="274.065" y="108.74" width="30.5323" height="55.3759" filterUnits="userSpaceOnUse" color-interpolation-filters="sRGB">
<feFlood flood-opacity="0" result="BackgroundImageFix"/>
<feBlend mode="normal" in="SourceGraphic" in2="BackgroundImageFix" result="shape"/>
<feColorMatrix in="SourceAlpha" type="matrix" values="0 0 0 0 0 0 0 0 0 0 0 0 0 0 0 0 0 0 127 0" result="hardAlpha"/>
<feOffset dy="4"/>
<feGaussianBlur stdDeviation="1"/>
<feComposite in2="hardAlpha" operator="arithmetic" k2="-1" k3="1"/>
<feColorMatrix type="matrix" values="0 0 0 0 1 0 0 0 0 1 0 0 0 0 1 0 0 0 0.64 0"/>
<feBlend mode="normal" in2="shape" result="effect1_innerShadow_1_378"/>
<feColorMatrix in="SourceAlpha" type="matrix" values="0 0 0 0 0 0 0 0 0 0 0 0 0 0 0 0 0 0 127 0" result="hardAlpha"/>
<feOffset dy="-4"/>
<feGaussianBlur stdDeviation="1"/>
<feComposite in2="hardAlpha" operator="arithmetic" k2="-1" k3="1"/>
<feColorMatrix type="matrix" values="0 0 0 0 1 0 0 0 0 1 0 0 0 0 1 0 0 0 0.64 0"/>
<feBlend mode="normal" in2="effect1_innerShadow_1_378" result="effect2_innerShadow_1_378"/>
</filter>
<filter id="filter4_ii_1_378" x="80.1105" y="258.358" width="20.0862" height="37.2822" filterUnits="userSpaceOnUse" color-interpolation-filters="sRGB">
<feFlood flood-opacity="0" result="BackgroundImageFix"/>
<feBlend mode="normal" in="SourceGraphic" in2="BackgroundImageFix" result="shape"/>
<feColorMatrix in="SourceAlpha" type="matrix" values="0 0 0 0 0 0 0 0 0 0 0 0 0 0 0 0 0 0 127 0" result="hardAlpha"/>
<feOffset dy="4"/>
<feGaussianBlur stdDeviation="1"/>
<feComposite in2="hardAlpha" operator="arithmetic" k2="-1" k3="1"/>
<feColorMatrix type="matrix" values="0 0 0 0 1 0 0 0 0 1 0 0 0 0 1 0 0 0 0.64 0"/>
<feBlend mode="normal" in2="shape" result="effect1_innerShadow_1_378"/>
<feColorMatrix in="SourceAlpha" type="matrix" values="0 0 0 0 0 0 0 0 0 0 0 0 0 0 0 0 0 0 127 0" result="hardAlpha"/>
<feOffset dy="-4"/>
<feGaussianBlur stdDeviation="1"/>
<feComposite in2="hardAlpha" operator="arithmetic" k2="-1" k3="1"/>
<feColorMatrix type="matrix" values="0 0 0 0 1 0 0 0 0 1 0 0 0 0 1 0 0 0 0.64 0"/>
<feBlend mode="normal" in2="effect1_innerShadow_1_378" result="effect2_innerShadow_1_378"/>
</filter>
<filter id="filter5_ii_1_378" x="14.298" y="14.1619" width="430.584" height="523.139" filterUnits="userSpaceOnUse" color-interpolation-filters="sRGB">
<feFlood flood-opacity="0" result="BackgroundImageFix"/>
<feBlend mode="normal" in="SourceGraphic" in2="BackgroundImageFix" result="shape"/>
<feColorMatrix in="SourceAlpha" type="matrix" values="0 0 0 0 0 0 0 0 0 0 0 0 0 0 0 0 0 0 127 0" result="hardAlpha"/>
<feOffset/>
<feGaussianBlur stdDeviation="5"/>
<feComposite in2="hardAlpha" operator="arithmetic" k2="-1" k3="1"/>
<feColorMatrix type="matrix" values="0 0 0 0 1 0 0 0 0 1 0 0 0 0 1 0 0 0 0.88 0"/>
<feBlend mode="normal" in2="shape" result="effect1_innerShadow_1_378"/>
<feColorMatrix in="SourceAlpha" type="matrix" values="0 0 0 0 0 0 0 0 0 0 0 0 0 0 0 0 0 0 127 0" result="hardAlpha"/>
<feOffset/>
<feGaussianBlur stdDeviation="2.5"/>
<feComposite in2="hardAlpha" operator="arithmetic" k2="-1" k3="1"/>
<feColorMatrix type="matrix" values="0 0 0 0 0 0 0 0 0 0 0 0 0 0 0 0 0 0 1 0"/>
<feBlend mode="normal" in2="effect1_innerShadow_1_378" result="effect2_innerShadow_1_378"/>
</filter>
<filter id="filter6_iiii_1_378" x="39.3362" y="187.735" width="10.9877" height="21.5234" filterUnits="userSpaceOnUse" color-interpolation-filters="sRGB">
<feFlood flood-opacity="0" result="BackgroundImageFix"/>
<feBlend mode="normal" in="SourceGraphic" in2="BackgroundImageFix" result="shape"/>
<feColorMatrix in="SourceAlpha" type="matrix" values="0 0 0 0 0 0 0 0 0 0 0 0 0 0 0 0 0 0 127 0" result="hardAlpha"/>
<feOffset dy="4"/>
<feGaussianBlur stdDeviation="1"/>
<feComposite in2="hardAlpha" operator="arithmetic" k2="-1" k3="1"/>
<feColorMatrix type="matrix" values="0 0 0 0 1 0 0 0 0 1 0 0 0 0 1 0 0 0 0.08 0"/>
<feBlend mode="normal" in2="shape" result="effect1_innerShadow_1_378"/>
<feColorMatrix in="SourceAlpha" type="matrix" values="0 0 0 0 0 0 0 0 0 0 0 0 0 0 0 0 0 0 127 0" result="hardAlpha"/>
<feOffset dy="-4"/>
<feGaussianBlur stdDeviation="1"/>
<feComposite in2="hardAlpha" operator="arithmetic" k2="-1" k3="1"/>
<feColorMatrix type="matrix" values="0 0 0 0 1 0 0 0 0 1 0 0 0 0 1 0 0 0 0.08 0"/>
<feBlend mode="normal" in2="effect1_innerShadow_1_378" result="effect2_innerShadow_1_378"/>
<feColorMatrix in="SourceAlpha" type="matrix" values="0 0 0 0 0 0 0 0 0 0 0 0 0 0 0 0 0 0 127 0" result="hardAlpha"/>
<feOffset dy="1"/>
<feGaussianBlur stdDeviation="0.5"/>
<feComposite in2="hardAlpha" operator="arithmetic" k2="-1" k3="1"/>
<feColorMatrix type="matrix" values="0 0 0 0 1 0 0 0 0 1 0 0 0 0 1 0 0 0 0.32 0"/>
<feBlend mode="normal" in2="effect2_innerShadow_1_378" result="effect3_innerShadow_1_378"/>
<feColorMatrix in="SourceAlpha" type="matrix" values="0 0 0 0 0 0 0 0 0 0 0 0 0 0 0 0 0 0 127 0" result="hardAlpha"/>
<feOffset dy="-1"/>
<feGaussianBlur stdDeviation="0.5"/>
<feComposite in2="hardAlpha" operator="arithmetic" k2="-1" k3="1"/>
<feColorMatrix type="matrix" values="0 0 0 0 1 0 0 0 0 1 0 0 0 0 1 0 0 0 0.32 0"/>
<feBlend mode="normal" in2="effect3_innerShadow_1_378" result="effect4_innerShadow_1_378"/>
</filter>
<filter id="filter7_iiii_1_378" x="57.0276" y="218.377" width="20.0863" height="37.2822" filterUnits="userSpaceOnUse" color-interpolation-filters="sRGB">
<feFlood flood-opacity="0" result="BackgroundImageFix"/>
<feBlend mode="normal" in="SourceGraphic" in2="BackgroundImageFix" result="shape"/>
<feColorMatrix in="SourceAlpha" type="matrix" values="0 0 0 0 0 0 0 0 0 0 0 0 0 0 0 0 0 0 127 0" result="hardAlpha"/>
<feOffset dy="4"/>
<feGaussianBlur stdDeviation="1"/>
<feComposite in2="hardAlpha" operator="arithmetic" k2="-1" k3="1"/>
<feColorMatrix type="matrix" values="0 0 0 0 1 0 0 0 0 1 0 0 0 0 1 0 0 0 0.08 0"/>
<feBlend mode="normal" in2="shape" result="effect1_innerShadow_1_378"/>
<feColorMatrix in="SourceAlpha" type="matrix" values="0 0 0 0 0 0 0 0 0 0 0 0 0 0 0 0 0 0 127 0" result="hardAlpha"/>
<feOffset dy="-4"/>
<feGaussianBlur stdDeviation="1"/>
<feComposite in2="hardAlpha" operator="arithmetic" k2="-1" k3="1"/>
<feColorMatrix type="matrix" values="0 0 0 0 1 0 0 0 0 1 0 0 0 0 1 0 0 0 0.08 0"/>
<feBlend mode="normal" in2="effect1_innerShadow_1_378" result="effect2_innerShadow_1_378"/>
<feColorMatrix in="SourceAlpha" type="matrix" values="0 0 0 0 0 0 0 0 0 0 0 0 0 0 0 0 0 0 127 0" result="hardAlpha"/>
<feOffset dy="1"/>
<feGaussianBlur stdDeviation="0.5"/>
<feComposite in2="hardAlpha" operator="arithmetic" k2="-1" k3="1"/>
<feColorMatrix type="matrix" values="0 0 0 0 1 0 0 0 0 1 0 0 0 0 1 0 0 0 0.32 0"/>
<feBlend mode="normal" in2="effect2_innerShadow_1_378" result="effect3_innerShadow_1_378"/>
<feColorMatrix in="SourceAlpha" type="matrix" values="0 0 0 0 0 0 0 0 0 0 0 0 0 0 0 0 0 0 127 0" result="hardAlpha"/>
<feOffset dy="-1"/>
<feGaussianBlur stdDeviation="0.5"/>
<feComposite in2="hardAlpha" operator="arithmetic" k2="-1" k3="1"/>
<feColorMatrix type="matrix" values="0 0 0 0 1 0 0 0 0 1 0 0 0 0 1 0 0 0 0.32 0"/>
<feBlend mode="normal" in2="effect3_innerShadow_1_378" result="effect4_innerShadow_1_378"/>
</filter>
<filter id="filter8_iiii_1_378" x="274.065" y="108.74" width="30.5323" height="55.3759" filterUnits="userSpaceOnUse" color-interpolation-filters="sRGB">
<feFlood flood-opacity="0" result="BackgroundImageFix"/>
<feBlend mode="normal" in="SourceGraphic" in2="BackgroundImageFix" result="shape"/>
<feColorMatrix in="SourceAlpha" type="matrix" values="0 0 0 0 0 0 0 0 0 0 0 0 0 0 0 0 0 0 127 0" result="hardAlpha"/>
<feOffset dy="4"/>
<feGaussianBlur stdDeviation="1"/>
<feComposite in2="hardAlpha" operator="arithmetic" k2="-1" k3="1"/>
<feColorMatrix type="matrix" values="0 0 0 0 1 0 0 0 0 1 0 0 0 0 1 0 0 0 0.08 0"/>
<feBlend mode="normal" in2="shape" result="effect1_innerShadow_1_378"/>
<feColorMatrix in="SourceAlpha" type="matrix" values="0 0 0 0 0 0 0 0 0 0 0 0 0 0 0 0 0 0 127 0" result="hardAlpha"/>
<feOffset dy="-4"/>
<feGaussianBlur stdDeviation="1"/>
<feComposite in2="hardAlpha" operator="arithmetic" k2="-1" k3="1"/>
<feColorMatrix type="matrix" values="0 0 0 0 1 0 0 0 0 1 0 0 0 0 1 0 0 0 0.08 0"/>
<feBlend mode="normal" in2="effect1_innerShadow_1_378" result="effect2_innerShadow_1_378"/>
<feColorMatrix in="SourceAlpha" type="matrix" values="0 0 0 0 0 0 0 0 0 0 0 0 0 0 0 0 0 0 127 0" result="hardAlpha"/>
<feOffset dy="1"/>
<feGaussianBlur stdDeviation="0.5"/>
<feComposite in2="hardAlpha" operator="arithmetic" k2="-1" k3="1"/>
<feColorMatrix type="matrix" values="0 0 0 0 1 0 0 0 0 1 0 0 0 0 1 0 0 0 0.32 0"/>
<feBlend mode="normal" in2="effect2_innerShadow_1_378" result="effect3_innerShadow_1_378"/>
<feColorMatrix in="SourceAlpha" type="matrix" values="0 0 0 0 0 0 0 0 0 0 0 0 0 0 0 0 0 0 127 0" result="hardAlpha"/>
<feOffset dy="-1"/>
<feGaussianBlur stdDeviation="0.5"/>
<feComposite in2="hardAlpha" operator="arithmetic" k2="-1" k3="1"/>
<feColorMatrix type="matrix" values="0 0 0 0 1 0 0 0 0 1 0 0 0 0 1 0 0 0 0.32 0"/>
<feBlend mode="normal" in2="effect3_innerShadow_1_378" result="effect4_innerShadow_1_378"/>
</filter>
<filter id="filter9_iiii_1_378" x="80.1105" y="258.358" width="20.0862" height="37.2822" filterUnits="userSpaceOnUse" color-interpolation-filters="sRGB">
<feFlood flood-opacity="0" result="BackgroundImageFix"/>
<feBlend mode="normal" in="SourceGraphic" in2="BackgroundImageFix" result="shape"/>
<feColorMatrix in="SourceAlpha" type="matrix" values="0 0 0 0 0 0 0 0 0 0 0 0 0 0 0 0 0 0 127 0" result="hardAlpha"/>
<feOffset dy="4"/>
<feGaussianBlur stdDeviation="1"/>
<feComposite in2="hardAlpha" operator="arithmetic" k2="-1" k3="1"/>
<feColorMatrix type="matrix" values="0 0 0 0 1 0 0 0 0 1 0 0 0 0 1 0 0 0 0.08 0"/>
<feBlend mode="normal" in2="shape" result="effect1_innerShadow_1_378"/>
<feColorMatrix in="SourceAlpha" type="matrix" values="0 0 0 0 0 0 0 0 0 0 0 0 0 0 0 0 0 0 127 0" result="hardAlpha"/>
<feOffset dy="-4"/>
<feGaussianBlur stdDeviation="1"/>
<feComposite in2="hardAlpha" operator="arithmetic" k2="-1" k3="1"/>
<feColorMatrix type="matrix" values="0 0 0 0 1 0 0 0 0 1 0 0 0 0 1 0 0 0 0.08 0"/>
<feBlend mode="normal" in2="effect1_innerShadow_1_378" result="effect2_innerShadow_1_378"/>
<feColorMatrix in="SourceAlpha" type="matrix" values="0 0 0 0 0 0 0 0 0 0 0 0 0 0 0 0 0 0 127 0" result="hardAlpha"/>
<feOffset dy="1"/>
<feGaussianBlur stdDeviation="0.5"/>
<feComposite in2="hardAlpha" operator="arithmetic" k2="-1" k3="1"/>
<feColorMatrix type="matrix" values="0 0 0 0 1 0 0 0 0 1 0 0 0 0 1 0 0 0 0.32 0"/>
<feBlend mode="normal" in2="effect2_innerShadow_1_378" result="effect3_innerShadow_1_378"/>
<feColorMatrix in="SourceAlpha" type="matrix" values="0 0 0 0 0 0 0 0 0 0 0 0 0 0 0 0 0 0 127 0" result="hardAlpha"/>
<feOffset dy="-1"/>
<feGaussianBlur stdDeviation="0.5"/>
<feComposite in2="hardAlpha" operator="arithmetic" k2="-1" k3="1"/>
<feColorMatrix type="matrix" values="0 0 0 0 1 0 0 0 0 1 0 0 0 0 1 0 0 0 0.32 0"/>
<feBlend mode="normal" in2="effect3_innerShadow_1_378" result="effect4_innerShadow_1_378"/>
</filter>
<filter id="filter10_d_1_378" x="71.5717" y="158.71" width="265.472" height="250.053" filterUnits="userSpaceOnUse" color-interpolation-filters="sRGB">
<feFlood flood-opacity="0" result="BackgroundImageFix"/>
<feColorMatrix in="SourceAlpha" type="matrix" values="0 0 0 0 0 0 0 0 0 0 0 0 0 0 0 0 0 0 127 0" result="hardAlpha"/>
<feOffset dy="20"/>
<feGaussianBlur stdDeviation="9"/>
<feColorMatrix type="matrix" values="0 0 0 0 0 0 0 0 0 0.136752 0 0 0 0 0.333333 0 0 0 0.03 0"/>
<feBlend mode="normal" in2="BackgroundImageFix" result="effect1_dropShadow_1_378"/>
<feBlend mode="normal" in="SourceGraphic" in2="effect1_dropShadow_1_378" result="shape"/>
</filter>
<filter id="filter11_i_1_378" x="103.696" y="69.8767" width="23.4404" height="15.526" filterUnits="userSpaceOnUse" color-interpolation-filters="sRGB">
<feFlood flood-opacity="0" result="BackgroundImageFix"/>
<feBlend mode="normal" in="SourceGraphic" in2="BackgroundImageFix" result="shape"/>
<feColorMatrix in="SourceAlpha" type="matrix" values="0 0 0 0 0 0 0 0 0 0 0 0 0 0 0 0 0 0 127 0" result="hardAlpha"/>
<feOffset/>
<feGaussianBlur stdDeviation="4"/>
<feComposite in2="hardAlpha" operator="arithmetic" k2="-1" k3="1"/>
<feColorMatrix type="matrix" values="0 0 0 0 0 0 0 0 0 0 0 0 0 0 0 0 0 0 0.48 0"/>
<feBlend mode="normal" in2="shape" result="effect1_innerShadow_1_378"/>
</filter>
<filter id="filter12_f_1_378" x="102.576" y="68.7551" width="25.6816" height="17.7688" filterUnits="userSpaceOnUse" color-interpolation-filters="sRGB">
<feFlood flood-opacity="0" result="BackgroundImageFix"/>
<feBlend mode="normal" in="SourceGraphic" in2="BackgroundImageFix" result="shape"/>
<feGaussianBlur stdDeviation="0.5" result="effect1_foregroundBlur_1_378"/>
</filter>
<linearGradient id="paint0_linear_1_378" x1="22.6173" y1="161.373" x2="27.5885" y2="158.503" gradientUnits="userSpaceOnUse">
<stop offset="0.109375" stop-color="#D1D1D1"/>
<stop offset="0.317708" stop-color="#E3E3E3"/>
<stop offset="0.552083" stop-color="#D2D2D2"/>
<stop offset="0.807292" stop-color="#E6E6E6"/>
</linearGradient>
<linearGradient id="paint1_linear_1_378" x1="226.32" y1="514.197" x2="231.291" y2="511.327" gradientUnits="userSpaceOnUse">
<stop offset="0.109375" stop-color="#D1D1D1"/>
<stop offset="0.317708" stop-color="#E3E3E3"/>
<stop offset="0.552083" stop-color="#D2D2D2"/>
<stop offset="0.807292" stop-color="#E6E6E6"/>
</linearGradient>
<linearGradient id="paint2_linear_1_378" x1="229.068" y1="42.1788" x2="234.039" y2="39.3088" gradientUnits="userSpaceOnUse">
<stop offset="0.0988321" stop-color="#E6E6E6"/>
<stop offset="0.368786" stop-color="#D2D2D2"/>
<stop offset="0.624532" stop-color="#E3E3E3"/>
<stop offset="0.798581" stop-color="#D1D1D1"/>
</linearGradient>
<linearGradient id="paint3_linear_1_378" x1="432.771" y1="395.003" x2="437.742" y2="392.133" gradientUnits="userSpaceOnUse">
<stop offset="0.0988321" stop-color="#E6E6E6"/>
<stop offset="0.368786" stop-color="#D2D2D2"/>
<stop offset="0.624532" stop-color="#E3E3E3"/>
<stop offset="0.798581" stop-color="#D1D1D1"/>
</linearGradient>
<linearGradient id="paint4_linear_1_378" x1="162.723" y1="26.2019" x2="165.588" y2="31.1629" gradientUnits="userSpaceOnUse">
<stop offset="0.238306" stop-color="#D1D1D1"/>
<stop offset="0.416703" stop-color="#E3E3E3"/>
<stop offset="0.700226" stop-color="#D2D2D2"/>
<stop offset="0.926408" stop-color="#E6E6E6"/>
</linearGradient>
<linearGradient id="paint5_linear_1_378" x1="285.776" y1="523.645" x2="288.64" y2="528.606" gradientUnits="userSpaceOnUse">
<stop offset="0.0988321" stop-color="#E6E6E6"/>
<stop offset="0.368786" stop-color="#D2D2D2"/>
<stop offset="0.624532" stop-color="#E3E3E3"/>
<stop offset="0.798581" stop-color="#D1D1D1"/>
</linearGradient>
<linearGradient id="paint6_linear_1_378" x1="21.3388" y1="120.883" x2="431.479" y2="427.58" gradientUnits="userSpaceOnUse">
<stop stop-color="white" stop-opacity="0.16"/>
<stop offset="1" stop-color="white" stop-opacity="0.05"/>
</linearGradient>
<linearGradient id="paint7_linear_1_378" x1="43.8914" y1="198.896" x2="45.3536" y2="198.052" gradientUnits="userSpaceOnUse">
<stop stop-opacity="0"/>
<stop offset="0.333333" stop-color="#D0D0D0" stop-opacity="0.42"/>
<stop offset="1" stop-opacity="0.24"/>
</linearGradient>
<linearGradient id="paint8_linear_1_378" x1="66.0537" y1="237.282" x2="67.5158" y2="236.438" gradientUnits="userSpaceOnUse">
<stop stop-opacity="0"/>
<stop offset="0.333333" stop-color="#D0D0D0" stop-opacity="0.42"/>
<stop offset="1" stop-opacity="0.24"/>
</linearGradient>
<linearGradient id="paint9_linear_1_378" x1="288.47" y1="136.288" x2="289.932" y2="135.444" gradientUnits="userSpaceOnUse">
<stop stop-opacity="0.24"/>
<stop offset="0.573835" stop-color="#D0D0D0" stop-opacity="0.42"/>
<stop offset="1" stop-opacity="0"/>
</linearGradient>
<linearGradient id="paint10_linear_1_378" x1="89.1365" y1="277.263" x2="90.5986" y2="276.419" gradientUnits="userSpaceOnUse">
<stop stop-opacity="0"/>
<stop offset="0.333333" stop-color="#D0D0D0" stop-opacity="0.42"/>
<stop offset="1" stop-opacity="0.24"/>
</linearGradient>
<linearGradient id="paint11_linear_1_378" x1="106.003" y1="61.6732" x2="353.176" y2="489.79" gradientUnits="userSpaceOnUse">
<stop stop-color="white" stop-opacity="0.64"/>
<stop offset="1" stop-color="white" stop-opacity="0.32"/>
</linearGradient>
<linearGradient id="paint12_linear_1_378" x1="22.6173" y1="161.373" x2="27.5885" y2="158.503" gradientUnits="userSpaceOnUse">
<stop offset="0.123628" stop-color="#8F8F8F"/>
<stop offset="0.365738" stop-color="#525252"/>
<stop offset="0.827659" stop-color="#141414"/>
</linearGradient>
<linearGradient id="paint13_linear_1_378" x1="226.32" y1="514.197" x2="231.291" y2="511.327" gradientUnits="userSpaceOnUse">
<stop offset="0.123628" stop-color="#8F8F8F"/>
<stop offset="0.365738" stop-color="#525252"/>
<stop offset="0.827659" stop-color="#141414"/>
</linearGradient>
<linearGradient id="paint14_linear_1_378" x1="229.068" y1="42.1788" x2="234.039" y2="39.3088" gradientUnits="userSpaceOnUse">
<stop offset="0.088176" stop-color="#141414"/>
<stop offset="0.536358" stop-color="#525252"/>
<stop offset="0.756584" stop-color="#8F8F8F"/>
</linearGradient>
<linearGradient id="paint15_linear_1_378" x1="432.771" y1="395.003" x2="437.742" y2="392.133" gradientUnits="userSpaceOnUse">
<stop offset="0.088176" stop-color="#141414"/>
<stop offset="0.529254" stop-color="#525252"/>
<stop offset="0.770792" stop-color="#8F8F8F"/>
</linearGradient>
<linearGradient id="paint16_linear_1_378" x1="162.723" y1="26.2019" x2="165.588" y2="31.1629" gradientUnits="userSpaceOnUse">
<stop offset="0.420124" stop-color="#8F8F8F"/>
<stop offset="0.610413" stop-color="#525252"/>
<stop offset="0.976264" stop-color="#141414"/>
</linearGradient>
<linearGradient id="paint17_linear_1_378" x1="285.776" y1="523.645" x2="288.64" y2="528.606" gradientUnits="userSpaceOnUse">
<stop offset="0.122861"/>
<stop offset="0.584624" stop-color="#292929"/>
<stop offset="0.87589" stop-color="#7A7A7A"/>
</linearGradient>
<linearGradient id="paint18_linear_1_378" x1="21.3388" y1="120.883" x2="431.479" y2="427.58" gradientUnits="userSpaceOnUse">
<stop stop-color="white" stop-opacity="0.16"/>
<stop offset="1" stop-color="white" stop-opacity="0.05"/>
</linearGradient>
<linearGradient id="paint19_linear_1_378" x1="43.8914" y1="198.896" x2="45.3536" y2="198.052" gradientUnits="userSpaceOnUse">
<stop stop-color="white" stop-opacity="0.08"/>
<stop offset="0.276042" stop-color="white" stop-opacity="0.24"/>
<stop offset="1" stop-color="white" stop-opacity="0"/>
</linearGradient>
<linearGradient id="paint20_linear_1_378" x1="66.0537" y1="237.282" x2="67.5158" y2="236.438" gradientUnits="userSpaceOnUse">
<stop stop-color="white" stop-opacity="0.08"/>
<stop offset="0.276042" stop-color="white" stop-opacity="0.24"/>
<stop offset="1" stop-color="white" stop-opacity="0"/>
</linearGradient>
<linearGradient id="paint21_linear_1_378" x1="288.47" y1="136.288" x2="289.932" y2="135.444" gradientUnits="userSpaceOnUse">
<stop stop-color="white" stop-opacity="0"/>
<stop offset="0.630208" stop-color="white" stop-opacity="0.24"/>
<stop offset="1" stop-color="white" stop-opacity="0.08"/>
</linearGradient>
<linearGradient id="paint22_linear_1_378" x1="89.1365" y1="277.263" x2="90.5986" y2="276.419" gradientUnits="userSpaceOnUse">
<stop stop-color="white" stop-opacity="0.08"/>
<stop offset="0.276042" stop-color="white" stop-opacity="0.24"/>
<stop offset="1" stop-color="white" stop-opacity="0"/>
</linearGradient>
<linearGradient id="paint23_linear_1_378" x1="114.237" y1="75.5967" x2="116.596" y2="79.6823" gradientUnits="userSpaceOnUse">
<stop/>
<stop offset="0.483028" stop-color="#484848"/>
<stop offset="1"/>
</linearGradient>
<radialGradient id="paint24_radial_1_378" cx="0" cy="0" r="1" gradientUnits="userSpaceOnUse" gradientTransform="translate(137.42 67.465) rotate(-157.75) scale(4.68803 4.69041)">
<stop stop-color="#242424"/>
<stop offset="1" stop-color="#161616"/>
</radialGradient>
<radialGradient id="paint25_radial_1_378" cx="0" cy="0" r="1" gradientUnits="userSpaceOnUse" gradientTransform="translate(135.593 65.9903) rotate(60) scale(4.71769 4.72726)">
<stop offset="0.463542" stop-opacity="0.25"/>
<stop offset="0.645833" stop-opacity="0"/>
</radialGradient>
<linearGradient id="paint26_linear_1_378" x1="134.414" y1="63.9476" x2="136.773" y2="68.0333" gradientUnits="userSpaceOnUse">
<stop stop-color="#0B528D"/>
<stop offset="0.276042" stop-color="#3625AF"/>
<stop offset="0.510417" stop-color="#070D17"/>
<stop offset="0.734375" stop-color="#16618F"/>
<stop offset="1" stop-color="#021762"/>
</linearGradient>
<radialGradient id="paint27_radial_1_378" cx="0" cy="0" r="1" gradientUnits="userSpaceOnUse" gradientTransform="translate(133.733 66.481) rotate(28.3406) scale(2.57331 2.57565)">
<stop stop-color="#070D17"/>
<stop offset="1" stop-color="#070D17" stop-opacity="0"/>
</radialGradient>
<radialGradient id="paint28_radial_1_378" cx="0" cy="0" r="1" gradientUnits="userSpaceOnUse" gradientTransform="translate(136.054 66.1134) rotate(76.731) scale(1.75937 1.76235)">
<stop offset="0.146834" stop-color="#070D17"/>
<stop offset="1" stop-color="#070D17" stop-opacity="0"/>
</radialGradient>
<radialGradient id="paint29_radial_1_378" cx="0" cy="0" r="1" gradientUnits="userSpaceOnUse" gradientTransform="translate(135.926 65.2149) rotate(98.7167) scale(1.07971 1.08018)">
<stop stop-color="#6356D7"/>
<stop offset="1" stop-color="#15368A" stop-opacity="0"/>
</radialGradient>
<radialGradient id="paint30_radial_1_378" cx="0" cy="0" r="1" gradientUnits="userSpaceOnUse" gradientTransform="translate(135.593 65.9904) rotate(60) scale(2.35884 2.36362)">
<stop offset="0.828125" stop-opacity="0"/>
<stop offset="1" stop-opacity="0.85"/>
</radialGradient>
<clipPath id="clip0_1_378">
<rect width="245.474" height="494.346" fill="white" transform="translate(0 122.874) rotate(-30)"/>
</clipPath>
</defs>
</svg>
